<!DOCTYPE svg PUBLIC "-//W3C//DTD SVG 20010904//EN" "http://www.w3.org/TR/2001/REC-SVG-20010904/DTD/svg10.dtd">
<svg version="1.0" xmlns="http://www.w3.org/2000/svg" width="1600px" height="282px" viewBox="0 0 16000 2820" preserveAspectRatio="xMidYMid meet">
<g id="layer1" fill="#fefefe" stroke="none">
 <path d="M410 2701 c-15 -29 -13 -134 3 -128 7 2 12 22 13 48 2 67 3 71 22 67 13 -2 18 -16 22 -61 3 -31 9 -57 14 -57 13 0 10 118 -4 135 -18 21 -57 19 -70 -4z"/>
 <path d="M658 2709 c-10 -5 -18 -17 -18 -24 0 -17 16 -20 25 -5 9 14 45 12 45 -2 -1 -7 -15 -22 -33 -33 -37 -23 -43 -43 -24 -69 16 -22 64 -16 74 10 7 20 -6 32 -16 15 -9 -15 -42 -12 -42 4 0 6 8 12 18 14 29 5 43 22 43 50 0 45 -33 63 -72 40z"/>
 <path d="M776 2707 c-14 -10 -19 -28 -20 -72 -1 -80 22 -88 26 -8 3 50 6 58 23 58 17 0 20 -8 23 -57 4 -76 22 -75 22 1 0 80 -29 111 -74 78z"/>
 <path d="M1085 2690 c-27 -52 -11 -116 33 -127 59 -14 94 97 43 138 -33 27 -58 24 -76 -11z m71 -24 c10 -42 1 -71 -23 -74 -29 -4 -47 36 -33 73 13 33 47 34 56 1z"/>
 <path d="M1620 2700 c-40 -40 -15 -140 35 -140 30 0 55 38 55 83 0 69 -48 99 -90 57z m66 -35 c9 -38 -3 -75 -26 -75 -26 0 -43 34 -35 71 9 39 51 42 61 4z"/>
 <path d="M2246 2698 c-23 -32 -20 -94 4 -118 23 -23 33 -24 61 -10 20 11 27 40 9 40 -5 0 -10 -5 -10 -11 0 -6 -12 -9 -27 -7 -24 3 -28 8 -31 39 -3 39 17 65 43 55 20 -7 19 -26 -1 -26 -8 0 -12 -4 -9 -10 3 -5 17 -10 31 -10 20 0 24 5 24 28 0 21 -7 32 -25 40 -37 17 -52 15 -69 -10z"/>
 <path d="M70 2640 c0 -40 4 -70 10 -70 6 0 10 30 10 70 0 40 -4 70 -10 70 -6 0 -10 -30 -10 -70z"/>
 <path d="M120 2640 c0 -83 15 -92 47 -27 l22 42 0 -43 c1 -30 5 -42 14 -39 16 5 17 129 0 134 -6 2 -23 -15 -37 -39 l-26 -43 0 43 c0 23 -4 42 -10 42 -6 0 -10 -30 -10 -70z"/>
 <path d="M290 2635 l0 -76 38 7 c49 9 52 11 52 39 0 29 -24 55 -51 55 -14 0 -19 7 -19 25 0 14 -4 25 -10 25 -6 0 -10 -32 -10 -75z m65 -25 c0 -8 -10 -16 -22 -18 -18 -3 -23 2 -23 18 0 16 5 21 23 18 12 -2 22 -10 22 -18z"/>
 <path d="M520 2637 l0 -72 45 3 c38 3 46 8 51 29 4 16 1 30 -9 40 -14 14 -14 18 0 40 25 38 5 40 -27 2 l-29 -34 -1 33 c0 22 -5 32 -15 32 -12 0 -15 -15 -15 -73z m75 -27 c0 -8 -10 -16 -22 -18 -18 -3 -23 2 -23 18 0 16 5 21 23 18 12 -2 22 -10 22 -18z"/>
 <path d="M880 2640 c0 -40 4 -70 10 -70 6 0 10 30 10 70 0 40 -4 70 -10 70 -6 0 -10 -30 -10 -70z"/>
 <path d="M950 2650 c0 -47 -3 -60 -15 -60 -8 0 -15 -4 -15 -10 0 -5 20 -10 45 -10 25 0 45 5 45 10 0 6 -7 10 -15 10 -12 0 -15 13 -15 60 0 47 -3 60 -15 60 -12 0 -15 -13 -15 -60z"/>
 <path d="M1210 2640 l0 -70 40 0 c22 0 40 5 40 10 0 6 -13 10 -30 10 -20 0 -30 5 -30 15 0 9 9 15 25 15 16 0 25 6 25 15 0 9 -9 15 -25 15 -21 0 -25 5 -25 30 0 17 -4 30 -10 30 -6 0 -10 -30 -10 -70z"/>
 <path d="M1360 2633 c0 -75 14 -93 22 -28 l3 30 18 -32 c10 -18 24 -33 32 -33 18 0 19 10 0 33 -12 16 -11 25 5 63 15 34 16 44 6 44 -8 0 -19 -14 -26 -30 -15 -36 -34 -34 -38 3 -7 58 -22 23 -22 -50z"/>
 <path d="M1480 2640 c0 -83 15 -92 47 -27 l22 42 0 -43 c1 -30 5 -42 14 -39 8 2 12 25 12 68 0 77 -17 85 -49 24 l-21 -40 -3 43 c-5 69 -22 48 -22 -28z"/>
 <path d="M1745 2698 c-2 -7 -6 -35 -10 -62 -4 -27 -9 -55 -12 -62 -4 -10 0 -12 11 -8 9 3 16 16 16 28 0 11 3 32 7 46 6 22 9 19 18 -25 15 -69 37 -67 51 5 l11 55 7 -52 c5 -35 13 -53 22 -53 7 0 12 6 9 13 -2 6 -9 38 -15 70 -14 71 -36 77 -46 12 -6 -46 -24 -62 -24 -22 0 38 -12 67 -26 67 -8 0 -16 -6 -19 -12z"/>
 <path d="M1890 2640 c0 -56 3 -70 15 -70 12 0 15 13 15 60 l0 60 30 0 c17 0 30 5 30 10 0 6 -20 10 -45 10 l-45 0 0 -70z"/>
 <path d="M2000 2640 l0 -70 40 0 c22 0 40 5 40 10 0 6 -13 10 -30 10 -20 0 -30 5 -30 15 0 10 10 15 30 15 20 0 30 5 30 15 0 10 -10 15 -30 15 -23 0 -30 4 -30 20 0 16 7 20 36 20 21 0 33 4 29 10 -3 6 -24 10 -46 10 l-39 0 0 -70z"/>
 <path d="M2110 2639 l0 -70 37 3 c51 4 71 42 54 99 -11 37 -14 39 -51 39 l-40 0 0 -71z m65 1 c0 -39 -3 -45 -22 -48 -21 -3 -23 0 -23 48 0 48 2 51 23 48 19 -3 22 -9 22 -48z"/>
 <path d="M2360 2641 l0 -69 45 -4 c31 -2 45 1 45 9 0 8 -14 13 -35 13 -24 0 -35 5 -35 15 0 10 10 15 30 15 20 0 30 5 30 15 0 10 -10 15 -30 15 -23 0 -30 4 -30 20 0 16 7 20 35 20 19 0 35 5 35 10 0 6 -20 10 -45 10 l-45 0 0 -69z"/>
 <path d="M1100 2430 c0 -16 9 -92 20 -170 12 -77 18 -145 15 -150 -4 -6 -15 -10 -25 -10 -63 0 -205 -54 -301 -115 -225 -144 -372 -382 -401 -648 -44 -412 208 -799 602 -925 198 -64 416 -47 622 47 107 48 265 189 343 305 103 152 161 396 136 572 -19 134 -44 216 -95 314 -116 222 -325 387 -556 440 -30 7 -61 14 -68 16 -15 4 -12 43 14 209 8 50 14 102 14 118 l0 27 -160 0 -160 0 0 -30z m178 -56 c30 -9 55 -58 47 -94 -7 -31 -55 -61 -86 -53 -26 7 -59 51 -59 78 0 14 13 34 31 49 33 28 34 28 67 20z m62 -418 c0 -36 5 -68 10 -71 6 -4 10 5 10 19 0 25 31 66 49 66 45 0 54 -42 16 -71 -15 -12 -22 -26 -18 -36 5 -13 0 -14 -36 -8 -40 7 -45 5 -81 -30 -27 -26 -40 -33 -45 -24 -5 7 0 19 13 30 29 23 28 39 -2 39 -46 0 -196 -30 -249 -50 -30 -11 -80 -39 -111 -61 -54 -39 -83 -46 -57 -15 9 11 3 24 -30 66 -27 35 -38 55 -31 62 7 7 23 -7 48 -41 21 -28 42 -51 47 -51 6 0 112 55 124 65 2 1 -8 28 -21 61 -13 32 -22 62 -19 66 11 19 22 4 44 -57 16 -46 27 -64 37 -60 7 3 18 5 24 5 11 0 7 38 -10 103 -9 33 -8 38 6 35 10 -2 20 -24 30 -63 l14 -60 104 9 c57 5 104 13 104 16 0 4 -11 5 -24 3 -13 -3 -27 0 -30 6 -4 6 -26 8 -55 4 -58 -7 -74 9 -43 40 19 19 22 19 28 4 9 -25 47 -21 59 6 6 14 21 23 38 25 16 2 31 10 34 18 12 33 23 10 23 -50z m170 32 c0 -2 -9 -32 -20 -68 -11 -36 -20 -66 -20 -67 0 -1 10 -3 23 -5 15 -2 27 5 40 25 24 39 70 35 75 -5 2 -15 -2 -36 -8 -47 -8 -16 -7 -22 9 -30 16 -9 24 -2 56 50 24 40 41 57 47 51 11 -11 -3 -42 -38 -85 -29 -35 -29 -38 2 -60 19 -15 28 -16 39 -7 8 6 11 18 8 26 -4 10 3 14 27 14 26 0 30 -3 25 -19 -3 -10 1 -23 8 -29 11 -9 20 -5 42 18 21 22 38 30 62 30 18 0 33 -4 33 -10 0 -5 -10 -10 -23 -10 -28 0 -127 -89 -127 -113 0 -27 -14 -20 -56 28 -55 64 -189 148 -256 160 -24 5 -38 13 -38 22 0 8 6 13 13 10 9 -3 19 16 31 59 11 39 24 64 32 64 8 0 14 -1 14 -2z m-562 -113 c12 9 23 11 27 6 5 -9 -60 -61 -77 -61 -10 0 -10 32 -1 56 6 15 7 15 18 1 10 -14 14 -15 33 -2z m-179 -134 c14 -10 31 -17 38 -14 27 10 12 -27 -34 -86 -27 -33 -51 -60 -55 -61 -16 0 -7 23 20 59 45 57 47 70 4 22 -23 -26 -43 -41 -50 -37 -15 9 -16 76 -1 76 5 0 7 5 4 10 -9 14 -35 -7 -35 -26 0 -8 -6 -14 -14 -14 -11 0 -14 12 -13 45 1 28 7 45 15 45 6 0 12 -4 12 -10 0 -5 11 -10 25 -10 32 0 42 -23 25 -56 -21 -38 -7 -37 19 2 24 34 24 35 5 49 -50 36 -57 43 -50 54 7 11 18 5 85 -48z m607 -86 c35 -16 63 -38 88 -71 66 -86 60 -128 -16 -101 -45 17 -64 20 -113 18 l-29 -1 36 -37 c52 -54 78 -120 78 -201 0 -108 -57 -263 -148 -399 -30 -46 -37 -52 -49 -40 -12 12 -12 22 -3 57 21 77 3 145 -71 267 -74 120 -68 216 18 304 37 38 42 47 28 53 -31 12 -86 6 -123 -13 -62 -31 -78 -11 -43 57 35 68 105 119 180 132 58 10 103 3 167 -25z m314 -192 c-10 -17 -27 -30 -48 -34 -18 -4 -42 -15 -52 -24 -11 -10 -23 -15 -27 -11 -14 14 23 61 55 72 18 5 40 18 49 27 26 25 42 4 23 -30z m-870 -23 c10 -5 27 -25 39 -45 11 -19 28 -35 36 -35 9 0 15 -6 12 -12 -8 -25 -52 -6 -94 39 -24 25 -43 49 -43 54 0 12 27 11 50 -1z m950 -30 c0 -23 -50 -60 -80 -60 -17 0 -39 -5 -50 -12 -10 -7 -22 -9 -25 -6 -12 12 27 58 49 58 11 1 35 7 51 15 37 17 55 18 55 5z m-957 -85 c19 -19 41 -35 51 -35 23 0 20 -17 -5 -23 -28 -8 -59 5 -88 37 -14 14 -30 26 -38 26 -17 0 -17 17 0 23 28 12 48 5 80 -28z m997 -16 c0 -3 -9 -14 -20 -24 -15 -14 -29 -16 -63 -12 -23 3 -49 2 -57 -3 -8 -5 -17 -7 -22 -4 -12 8 4 35 25 43 24 9 137 9 137 0z m-1017 -86 c16 -13 35 -23 43 -23 19 0 18 -16 -2 -24 -28 -11 -46 -6 -76 19 -16 14 -38 25 -49 25 -26 0 -24 19 4 29 27 10 43 5 80 -26z m1030 -20 c5 -3 0 -14 -10 -25 -13 -15 -25 -18 -48 -13 -16 3 -47 9 -67 12 -41 5 -45 12 -25 32 8 8 31 10 77 5 36 -3 69 -9 73 -11z m-1051 -70 c10 -9 31 -16 48 -15 19 0 30 -4 30 -13 0 -28 -58 -33 -95 -9 -14 9 -34 14 -45 11 -27 -7 -36 11 -14 28 25 19 54 19 76 -2z m994 -18 c10 -8 29 -15 41 -15 33 0 38 -19 8 -30 -30 -12 -69 -4 -86 16 -6 8 -22 14 -35 14 -12 0 -25 4 -28 9 -14 23 71 28 100 6z m-943 -68 c41 1 46 -6 20 -30 -14 -11 -34 -14 -82 -12 -34 2 -65 6 -68 8 -2 3 8 14 23 26 19 15 33 19 48 14 12 -4 38 -7 59 -6z m919 -16 c18 -16 41 -30 51 -32 32 -7 23 -24 -15 -27 -30 -3 -40 1 -54 22 -10 16 -26 26 -40 26 -43 0 -28 31 18 39 4 0 22 -12 40 -28z m-875 -94 c-11 -17 -26 -23 -63 -25 -27 -2 -54 -8 -60 -13 -18 -15 -27 6 -14 31 11 21 23 24 81 21 20 -2 40 2 44 8 3 6 11 9 16 5 6 -4 5 -14 -4 -27z m838 1 c15 -18 36 -36 46 -40 29 -11 22 -28 -10 -28 -22 0 -37 9 -57 35 -14 19 -35 35 -45 35 -24 0 -25 17 -1 23 34 9 41 7 67 -25z m-45 -71 c0 -6 14 -26 32 -44 36 -37 33 -48 -10 -39 -20 5 -34 18 -46 42 -9 20 -26 38 -36 41 -23 6 -26 19 -7 26 18 6 67 -13 67 -26z m-760 -22 c-15 -15 -34 -25 -52 -25 -16 0 -38 -5 -50 -11 -28 -15 -34 -4 -14 26 13 20 25 25 55 25 23 0 44 6 51 15 9 11 16 13 23 6 7 -7 3 -19 -13 -36z m690 -25 c11 -11 20 -28 20 -38 0 -11 9 -27 20 -37 25 -23 25 -35 1 -35 -21 0 -61 44 -61 66 0 8 -9 22 -20 31 -11 10 -20 21 -20 25 0 16 40 8 60 -12z m-620 -8 c0 -24 -27 -48 -62 -57 -15 -4 -32 -13 -39 -21 -16 -20 -29 -17 -29 6 0 27 35 60 64 60 13 0 29 7 36 15 17 20 30 19 30 -3z m552 -56 c4 -6 8 -23 8 -37 0 -14 7 -34 15 -45 17 -22 19 -44 5 -44 -23 0 -60 50 -60 79 0 16 -7 37 -16 45 -22 22 -9 39 19 25 12 -7 25 -17 29 -23z m-483 12 c-1 -28 -16 -47 -62 -82 -26 -20 -49 -36 -52 -36 -3 0 -5 11 -5 24 0 27 24 56 45 56 8 0 22 11 32 25 19 26 43 33 42 13z m395 -40 c9 -13 16 -43 16 -70 0 -26 5 -50 11 -54 8 -4 8 -9 0 -17 -8 -8 -18 -4 -36 13 -23 22 -26 30 -20 71 4 30 3 49 -4 54 -12 7 -5 25 9 25 5 0 16 -10 24 -22z m-324 -16 c0 -18 -10 -38 -26 -53 -14 -13 -30 -34 -35 -46 -13 -34 -29 -28 -29 11 0 27 7 39 30 56 17 12 30 30 30 41 0 10 7 19 15 19 10 0 15 -10 15 -28z m74 -8 c10 -27 7 -42 -19 -72 -14 -17 -25 -39 -25 -51 0 -28 -26 -27 -33 1 -6 23 17 78 33 78 6 0 10 14 10 30 0 32 23 42 34 14z m176 -3 c13 -25 9 -151 -5 -151 -32 0 -46 60 -25 101 7 13 7 25 1 38 -10 18 -6 31 10 31 5 0 13 -9 19 -19z m-80 -40 c0 -15 -7 -36 -15 -47 -8 -10 -15 -29 -15 -41 0 -33 -18 -37 -32 -8 -10 23 -9 33 11 69 12 24 21 47 20 52 -4 21 2 26 16 14 8 -7 15 -25 15 -39z"/>
 <path d="M1264 1959 c-3 -6 0 -17 7 -25 18 -17 44 -2 36 20 -7 18 -33 21 -43 5z"/>
 <path d="M1393 1925 c-9 -25 2 -27 28 -6 l24 20 -23 1 c-12 0 -25 -7 -29 -15z"/>
 <path d="M1556 1854 c-4 -15 -4 -29 -1 -33 8 -7 35 28 35 46 0 24 -28 13 -34 -13z"/>
 <path d="M1731 1721 c-12 -8 -13 -12 -2 -25 16 -19 43 -3 34 20 -6 16 -12 17 -32 5z"/>
 <path d="M1145 1614 c-22 -14 -50 -39 -62 -54 l-22 -27 39 10 c27 8 55 7 97 -2 64 -13 63 -13 146 -5 31 3 71 1 87 -5 27 -9 29 -8 21 7 -17 31 -75 79 -110 91 -19 6 -62 11 -95 11 -50 0 -70 -5 -101 -26z"/>
 <path d="M1217 1449 c-41 -34 -72 -86 -82 -139 -5 -29 1 -48 31 -105 20 -39 47 -90 60 -115 13 -25 30 -69 37 -99 l14 -54 36 75 c53 112 70 179 65 262 -3 39 -12 85 -21 103 -16 31 -84 103 -96 103 -4 0 -23 -14 -44 -31z"/>
 <path d="M984 2325 c4 -14 9 -45 13 -70 4 -30 11 -45 20 -45 9 0 13 6 10 13 -2 7 -10 38 -17 70 -6 31 -16 57 -22 57 -6 0 -8 -10 -4 -25z"/>
 <path d="M1514 2313 c-3 -16 -10 -41 -15 -57 -12 -39 -11 -46 5 -46 8 0 16 15 19 38 4 20 9 49 13 65 4 17 2 27 -5 27 -6 0 -13 -12 -17 -27z"/>
 <path d="M916 2295 c-9 -21 -16 -42 -16 -47 0 -21 -18 4 -24 34 -4 21 -10 28 -16 22 -7 -7 -5 -28 6 -65 24 -74 31 -79 44 -28 17 63 22 67 35 29 6 -19 17 -36 25 -38 10 -4 11 0 5 14 -4 11 -13 38 -19 61 -16 58 -22 61 -40 18z"/>
 <path d="M1620 2285 c-5 -14 -13 -37 -16 -51 -6 -22 -11 -25 -35 -20 -42 8 -44 -9 -2 -22 42 -13 47 -9 64 51 5 21 13 45 16 53 3 8 0 14 -6 14 -6 0 -16 -11 -21 -25z"/>
 <path d="M766 2259 c-33 -26 -34 -68 -3 -97 27 -25 55 -28 82 -9 17 13 17 16 -9 70 -15 32 -30 57 -35 57 -5 0 -20 -9 -35 -21z m50 -44 c19 -47 18 -57 -8 -53 -30 4 -55 53 -38 74 19 22 30 17 46 -21z"/>
 <path d="M1676 2228 c-25 -28 -43 -55 -40 -60 3 -5 11 -4 18 1 18 15 56 2 56 -20 0 -11 5 -19 10 -19 6 0 10 32 10 75 0 41 -2 75 -4 75 -3 0 -25 -23 -50 -52z m34 -18 c0 -11 -7 -20 -15 -20 -18 0 -19 12 -3 28 16 16 18 15 18 -8z"/>
 <path d="M1799 2218 c-34 -54 -53 -98 -45 -105 4 -4 12 -1 16 7 26 42 26 42 48 29 19 -12 19 -15 6 -40 -8 -16 -10 -30 -5 -34 5 -3 12 -2 14 2 36 60 57 106 51 114 -4 7 -13 1 -23 -15 -16 -24 -18 -25 -40 -10 -21 15 -21 17 -5 35 12 13 14 23 7 30 -7 7 -15 3 -24 -13z"/>
 <path d="M684 2223 c-16 -6 43 -123 62 -123 11 0 6 16 -17 63 -37 72 -31 65 -45 60z"/>
 <path d="M605 2138 c4 -18 10 -48 14 -67 3 -19 12 -36 20 -39 10 -3 12 0 7 13 -8 23 22 46 52 38 13 -3 22 -1 22 6 0 6 -4 11 -9 11 -4 0 -29 16 -54 35 -25 19 -49 35 -53 35 -3 0 -3 -15 1 -32z m49 -39 c-10 -16 -24 -9 -24 12 0 18 2 19 15 9 8 -7 12 -16 9 -21z"/>
 <path d="M1901 2124 c-33 -28 -42 -79 -19 -102 21 -21 65 -14 87 14 31 40 28 80 -8 99 -28 14 -31 13 -60 -11z m67 -27 c6 -29 -26 -69 -51 -65 -29 4 -35 43 -11 69 21 24 57 21 62 -4z"/>
 <path d="M525 2053 l6 -58 -29 34 c-16 19 -31 30 -34 25 -3 -5 14 -33 38 -62 l44 -53 0 58 1 58 25 -29 c25 -28 43 -30 27 -3 -12 20 -71 87 -78 87 -3 0 -3 -26 0 -57z"/>
 <path d="M2001 2017 c-50 -39 -57 -62 -12 -37 24 12 25 11 11 -24 -11 -30 -9 -31 30 -11 31 16 41 6 15 -15 -8 -7 -15 -22 -15 -34 0 -20 1 -20 21 4 11 14 29 42 40 63 22 41 11 49 -29 21 -31 -22 -37 -13 -17 26 26 50 14 52 -44 7z"/>
 <path d="M380 1962 c0 -18 94 -101 101 -90 4 6 -10 24 -30 42 -58 51 -71 59 -71 48z"/>
 <path d="M340 1905 c0 -9 7 -32 15 -52 8 -20 14 -38 11 -40 -2 -2 -18 8 -35 22 -23 20 -31 23 -31 11 0 -14 84 -86 100 -86 8 0 -13 80 -25 100 -4 6 10 0 30 -11 77 -46 42 4 -37 53 -24 15 -28 16 -28 3z"/>
 <path d="M2133 1853 c-51 -35 -66 -70 -16 -38 14 9 26 15 27 13 1 -2 8 -11 15 -20 12 -16 10 -20 -10 -37 -27 -21 -18 -43 9 -23 9 7 32 22 50 33 17 12 32 25 32 30 0 13 -28 11 -36 -2 -4 -8 -13 -4 -25 12 -17 22 -17 24 2 37 19 13 26 32 12 32 -5 0 -31 -17 -60 -37z"/>
 <path d="M251 1768 c-11 -28 -3 -39 10 -15 17 29 39 21 39 -16 0 -34 15 -57 37 -57 17 0 46 46 38 60 -5 8 -11 4 -19 -10 -13 -27 -30 -28 -34 -3 -9 57 -13 63 -38 63 -16 0 -27 -7 -33 -22z"/>
 <path d="M2250 1752 c0 -4 4 -12 10 -18 16 -16 -1 -54 -26 -60 -33 -8 -54 2 -54 26 0 20 -14 27 -24 12 -8 -13 32 -72 49 -72 30 0 75 30 81 54 6 25 -10 66 -26 66 -6 0 -10 -4 -10 -8z"/>
 <path d="M214 1690 c-4 -17 -11 -33 -15 -36 -5 -3 -9 -17 -9 -31 l0 -25 18 22 18 22 43 -22 c24 -12 45 -19 48 -16 10 10 -18 35 -53 46 -29 10 -33 15 -28 35 3 12 1 26 -5 30 -7 4 -14 -6 -17 -25z"/>
 <path d="M2272 1619 c-14 -15 -26 -18 -46 -13 -16 4 -26 2 -26 -4 0 -6 16 -14 35 -18 42 -7 44 -16 10 -34 -38 -21 -15 -31 30 -14 22 8 48 17 58 21 11 3 16 12 13 20 -3 8 -6 18 -6 23 0 11 -29 40 -40 40 -5 0 -18 -9 -28 -21z m48 -24 c0 -16 -27 -32 -37 -22 -3 4 -3 13 0 22 8 20 37 20 37 0z"/>
 <path d="M170 1566 c0 -18 93 -51 118 -41 13 5 4 12 -33 26 -81 31 -85 32 -85 15z"/>
 <path d="M158 1515 c-12 -21 -19 -103 -8 -110 6 -4 10 4 10 19 0 29 11 31 73 17 27 -7 37 -6 37 3 0 7 -21 17 -47 22 -39 7 -48 14 -53 34 -3 14 -8 20 -12 15z"/>
 <path d="M2236 1485 c4 -8 12 -15 19 -15 19 0 23 -43 6 -56 -7 -6 -12 -16 -10 -23 3 -8 26 3 62 30 32 22 56 44 52 47 -7 8 -94 31 -117 32 -11 0 -15 -5 -12 -15z m79 -21 c13 -5 14 -8 3 -15 -19 -13 -28 -11 -28 6 0 17 2 18 25 9z"/>
 <path d="M130 1372 c0 -14 25 -22 66 -22 38 0 54 -21 34 -44 -7 -10 -22 -13 -45 -9 -19 3 -42 2 -52 -2 -16 -7 -15 -9 7 -15 43 -13 88 -11 104 6 16 16 22 69 9 77 -18 10 -123 18 -123 9z"/>
 <path d="M2268 1374 c-5 -4 -8 -26 -8 -48 l0 -42 43 4 c83 6 87 8 87 52 0 22 -4 40 -10 40 -5 0 -10 -13 -10 -30 0 -20 -5 -30 -15 -30 -8 0 -15 9 -15 20 0 11 -4 20 -10 20 -5 0 -10 -11 -10 -25 0 -18 -5 -25 -19 -25 -15 0 -20 8 -23 36 -2 20 -6 32 -10 28z"/>
 <path d="M2272 1248 c-14 -14 -16 -68 -2 -68 6 0 10 14 10 30 0 20 5 30 15 30 8 0 21 -13 30 -30 9 -18 23 -30 35 -30 23 0 43 32 34 54 -9 25 -24 19 -24 -9 0 -34 -16 -32 -35 5 -16 31 -42 39 -63 18z"/>
 <path d="M128 1185 c2 -30 8 -55 13 -55 5 0 9 9 9 19 0 23 19 31 71 31 21 0 39 5 39 10 0 6 -25 10 -56 10 -47 0 -57 3 -61 20 -10 38 -18 20 -15 -35z"/>
 <path d="M2778 1183 c21 -15 22 -22 22 -148 0 -126 -1 -133 -22 -148 -22 -15 -20 -16 37 -16 52 0 58 1 43 13 -16 11 -18 31 -18 151 0 120 2 140 18 151 15 12 9 13 -43 13 -57 0 -59 -1 -37 -16z"/>
 <path d="M2931 1179 c19 -19 21 -30 16 -92 -3 -52 -9 -74 -23 -84 -13 -10 -14 -13 -3 -13 8 0 24 -3 37 -6 16 -5 22 -2 22 10 0 16 2 16 22 2 12 -9 39 -16 60 -16 53 0 68 26 68 119 0 59 4 77 18 87 15 12 10 13 -38 13 -42 0 -51 -2 -37 -10 14 -8 17 -24 17 -83 0 -85 -10 -99 -67 -94 l-38 3 -3 74 c-2 58 1 77 14 92 17 18 15 19 -34 19 l-52 0 21 -21z"/>
 <path d="M3233 1185 c-46 -32 -48 -135 -4 -178 13 -14 38 -22 75 -25 l56 -4 0 -44 c0 -33 -5 -46 -22 -58 -21 -15 -21 -16 -3 -16 11 0 30 -3 43 -6 l22 -6 0 166 c0 144 2 166 16 166 8 0 12 5 9 10 -8 13 -48 13 -62 -1 -8 -8 -17 -8 -31 0 -29 16 -74 14 -99 -4z m111 -11 c13 -5 16 -23 16 -90 l0 -84 -40 0 c-55 0 -80 26 -80 85 0 69 49 110 104 89z"/>
 <path d="M3473 1189 c24 -14 25 -173 1 -187 -13 -7 -10 -10 16 -16 18 -3 36 -3 39 0 3 3 6 48 6 99 0 84 2 95 20 104 15 7 6 10 -40 10 -45 0 -56 -2 -42 -10z"/>
 <path d="M3612 1184 c-49 -34 -8 -96 71 -108 53 -8 60 -23 26 -57 -16 -16 -28 -20 -55 -14 -19 3 -34 2 -34 -3 0 -14 26 -22 70 -22 59 0 80 33 80 126 0 60 3 74 16 74 8 0 12 5 9 10 -8 13 -65 13 -65 0 0 -7 -6 -7 -19 0 -28 15 -73 12 -99 -6z m102 -10 c11 -4 16 -19 16 -45 0 -35 -3 -39 -26 -39 -38 0 -64 18 -64 43 0 39 32 57 74 41z"/>
 <path d="M3843 1186 c14 -11 17 -29 17 -93 0 -73 -2 -81 -22 -90 -21 -9 -20 -10 16 -17 26 -5 41 -4 46 4 6 9 13 9 28 1 33 -18 77 -13 98 10 15 17 19 36 19 99 -1 70 1 80 20 89 16 8 9 10 -34 10 -45 1 -52 -1 -42 -13 8 -9 11 -43 9 -93 l-3 -78 -45 0 -45 0 -3 80 c-2 66 0 82 14 92 15 11 10 13 -37 13 -47 -1 -52 -2 -36 -14z"/>
 <path d="M4248 1188 c21 -11 22 -16 22 -153 0 -137 -1 -142 -22 -153 -19 -9 -13 -11 37 -11 52 0 58 1 43 13 -16 11 -18 31 -18 151 0 120 2 140 18 151 15 12 9 13 -43 13 -50 0 -56 -2 -37 -11z"/>
 <path d="M4398 1188 c20 -10 22 -18 22 -93 0 -75 -2 -83 -22 -92 -21 -9 -20 -10 17 -17 25 -5 41 -4 43 3 2 7 12 7 28 0 39 -14 79 -11 97 9 13 14 17 38 17 97 0 62 3 80 18 91 15 12 10 13 -38 13 -42 0 -51 -2 -37 -10 14 -8 17 -24 17 -83 0 -84 -10 -99 -62 -94 l-33 3 -3 80 c-2 66 0 82 14 92 15 11 9 13 -42 12 -50 0 -55 -2 -36 -11z"/>
 <path d="M4673 1192 c-13 -8 -7 -52 7 -52 4 0 10 9 13 20 4 15 14 20 41 20 62 0 62 -54 0 -73 -43 -14 -64 -36 -64 -68 0 -37 33 -59 87 -59 47 0 58 10 47 42 l-7 23 -8 -23 c-7 -20 -15 -23 -46 -20 -30 2 -39 8 -41 25 -3 18 7 27 55 50 47 23 59 33 61 55 5 42 -28 68 -85 68 -27 0 -53 -4 -60 -8z"/>
 <path d="M4887 1193 c-4 -3 -7 -48 -7 -100 0 -82 -2 -93 -17 -94 -15 0 -15 -2 2 -8 11 -4 22 -18 25 -31 9 -36 30 -37 30 -1 0 29 3 31 35 31 19 0 35 5 35 10 0 6 -16 10 -35 10 l-36 0 3 83 3 82 35 5 c27 4 31 7 17 13 -23 9 -81 9 -90 0z"/>
 <path d="M5033 1189 c24 -14 25 -173 1 -187 -13 -7 -10 -10 16 -16 18 -3 36 -3 39 0 3 3 6 48 6 99 0 84 2 95 20 104 15 7 6 10 -40 10 -45 0 -56 -2 -42 -10z"/>
 <path d="M5192 1188 c-7 -7 -12 -45 -12 -99 0 -75 -3 -88 -17 -92 -15 -4 -15 -5 -2 -6 9 0 22 -14 29 -31 7 -16 16 -30 21 -30 5 0 9 14 9 30 0 28 3 30 35 30 19 0 35 5 35 10 0 6 -16 10 -35 10 l-35 0 0 73 c0 79 9 97 50 97 20 0 22 2 10 10 -21 14 -74 12 -88 -2z"/>
 <path d="M5367 1182 c-13 -14 -17 -38 -17 -94 0 -63 -3 -77 -17 -83 -16 -7 -15 -9 7 -15 49 -15 50 -15 50 73 0 45 4 87 8 93 12 18 50 26 72 14 17 -9 20 -20 20 -84 0 -61 -3 -75 -17 -81 -16 -7 -15 -9 7 -15 50 -16 50 -15 50 79 0 65 4 94 15 104 8 8 11 17 8 21 -11 10 -51 7 -55 -5 -3 -9 -9 -9 -25 0 -33 17 -88 14 -106 -7z"/>
 <path d="M5627 1193 c-4 -3 -7 -48 -7 -100 0 -89 -1 -93 -22 -94 -22 -1 -22 -1 2 -8 18 -5 26 -15 28 -34 5 -38 32 -36 32 3 0 28 3 30 35 30 19 0 35 5 35 10 0 6 -16 10 -35 10 l-36 0 3 83 3 82 35 5 c27 4 31 7 17 13 -23 9 -81 9 -90 0z"/>
 <path d="M5800 1172 c-26 -26 -30 -38 -30 -82 0 -44 4 -56 29 -81 21 -21 39 -29 64 -29 49 0 66 8 82 41 28 54 23 59 -60 59 -68 0 -75 2 -75 19 0 11 11 32 24 47 20 24 31 28 75 28 68 0 50 18 -23 24 -51 4 -57 2 -86 -26z m110 -137 c0 -50 -64 -54 -90 -5 -15 29 -14 30 40 30 46 0 50 -2 50 -25z"/>
 <path d="M6148 1173 c-42 -45 -41 -121 1 -164 24 -24 38 -29 76 -29 38 0 52 5 76 29 24 24 29 38 29 76 0 40 -5 52 -34 81 -28 28 -41 34 -78 34 -35 0 -50 -6 -70 -27z m112 -1 c19 -15 23 -29 24 -75 0 -49 -3 -61 -26 -84 -24 -24 -30 -25 -53 -15 -50 23 -63 125 -20 167 29 30 45 31 75 7z"/>
 <path d="M6383 1186 c14 -11 17 -29 17 -99 0 -73 -3 -86 -17 -90 -15 -4 -15 -5 -2 -6 11 -1 19 -14 23 -40 3 -22 18 -53 32 -70 21 -26 33 -31 69 -31 40 0 42 1 37 25 -5 27 -22 35 -22 11 0 -37 -51 -30 -68 10 -7 14 -12 40 -12 59 0 32 2 35 30 35 17 0 30 5 30 10 0 6 -13 10 -30 10 l-30 0 0 83 c0 77 2 85 23 95 18 9 12 11 -38 11 -52 0 -58 -1 -42 -13z"/>
 <path d="M6655 1195 c-6 -3 -9 -23 -7 -45 4 -42 22 -46 22 -4 0 51 101 55 127 5 18 -37 2 -64 -58 -94 -111 -56 -132 -129 -49 -172 33 -17 135 -20 145 -5 4 6 3 25 -1 43 l-7 32 -13 -32 c-16 -37 -47 -49 -87 -34 -31 12 -44 50 -27 81 6 12 34 32 61 45 71 33 89 52 89 95 0 58 -35 84 -118 87 -37 1 -72 0 -77 -2z"/>
 <path d="M6916 1175 c-63 -68 -27 -180 61 -192 64 -9 91 1 85 32 -5 30 -18 33 -27 5 -4 -14 -15 -20 -36 -20 -42 0 -69 31 -69 81 0 22 4 49 10 59 13 24 73 44 108 36 26 -6 26 -6 8 9 -12 9 -40 15 -68 15 -39 0 -54 -5 -72 -25z"/>
 <path d="M7113 1186 c14 -11 17 -29 17 -95 0 -69 -3 -83 -17 -88 -15 -6 -14 -8 7 -14 56 -16 55 -16 52 85 -3 88 -2 95 20 110 22 15 20 16 -37 16 -52 -1 -58 -2 -42 -14z"/>
 <path d="M7287 1184 c-66 -36 -61 -161 8 -192 63 -29 135 5 135 63 0 25 -1 25 -76 25 l-76 0 7 28 c11 46 38 65 95 66 43 1 48 3 33 14 -23 16 -92 15 -126 -4z m99 -140 c-3 -9 -6 -20 -6 -24 0 -5 -9 -14 -21 -20 -26 -14 -69 11 -69 40 0 17 7 20 51 20 43 0 50 -3 45 -16z"/>
 <path d="M7478 1188 c20 -10 22 -18 22 -89 0 -67 -3 -80 -21 -92 -19 -14 -18 -15 17 -22 24 -4 39 -2 44 5 6 9 13 9 28 1 31 -17 77 -13 95 7 13 14 17 38 17 95 0 67 3 78 22 91 21 15 20 16 -37 16 -46 -1 -56 -3 -42 -11 14 -8 17 -24 17 -83 0 -84 -10 -99 -62 -94 l-33 3 -3 80 c-2 66 0 82 14 92 15 11 9 13 -42 12 -50 0 -55 -2 -36 -11z"/>
 <path d="M7779 1171 c-24 -24 -29 -38 -29 -76 0 -40 5 -52 34 -81 30 -30 40 -34 84 -34 58 0 64 5 53 46 l-8 29 -13 -27 c-20 -43 -74 -38 -99 9 -39 75 23 156 107 140 25 -5 25 -4 7 9 -10 8 -39 14 -63 14 -35 0 -49 -6 -73 -29z"/>
 <path d="M8008 1180 c-52 -40 -55 -120 -8 -170 52 -56 142 -34 156 38 l7 32 -77 0 c-69 0 -76 2 -76 19 0 11 11 32 23 47 20 23 32 28 75 28 65 1 51 18 -20 24 -43 3 -58 0 -80 -18z m104 -145 c-9 -50 -66 -53 -92 -5 -15 29 -14 30 44 30 52 0 53 -1 48 -25z"/>
 <path d="M8325 1190 c3 -5 12 -10 18 -10 9 0 12 -39 12 -145 0 -106 -3 -145 -12 -145 -6 0 -15 -4 -18 -10 -4 -6 33 -10 104 -10 108 0 111 1 111 23 0 12 -4 28 -9 35 -6 10 -10 7 -15 -12 -6 -24 -11 -26 -61 -26 l-55 0 0 65 0 65 40 0 c33 0 42 -4 50 -22 7 -18 9 -11 9 32 0 43 -2 50 -9 33 -8 -19 -17 -23 -50 -23 l-40 0 0 70 0 70 59 0 c57 0 59 -1 71 -32 10 -26 14 -29 17 -15 3 10 2 29 -1 43 -6 24 -8 24 -117 24 -71 0 -108 -4 -104 -10z"/>
 <path d="M8622 1177 c-30 -32 -37 -94 -15 -137 21 -41 54 -60 104 -60 33 0 37 -3 43 -31 10 -52 7 -65 -16 -77 -21 -10 -22 -11 -3 -11 11 -1 30 -4 43 -7 l22 -6 0 166 c0 144 2 166 16 166 8 0 12 5 9 10 -8 13 -48 13 -62 -1 -8 -8 -17 -8 -31 0 -35 19 -86 13 -110 -12z m123 -5 c6 -4 9 -42 7 -89 l-4 -83 -33 0 c-48 0 -75 32 -75 89 0 32 6 51 22 68 21 22 63 30 83 15z"/>
 <path d="M8904 1186 c-16 -12 -19 -26 -18 -95 1 -73 -1 -81 -20 -88 -20 -6 -20 -7 4 -14 60 -17 60 -17 60 81 0 100 10 115 69 104 l31 -6 0 -78 c0 -65 -3 -79 -17 -85 -16 -7 -15 -9 7 -15 50 -16 50 -16 50 90 0 84 3 100 16 100 8 0 12 5 9 10 -8 13 -52 13 -57 -1 -2 -7 -12 -7 -31 0 -39 15 -80 14 -103 -3z"/>
 <path d="M9169 1171 c-24 -24 -29 -38 -29 -76 0 -40 5 -52 34 -81 30 -30 40 -34 84 -34 58 0 64 5 53 46 l-8 29 -13 -27 c-20 -43 -74 -38 -99 9 -39 75 23 156 107 140 25 -5 25 -4 7 9 -10 8 -39 14 -63 14 -35 0 -49 -6 -73 -29z"/>
 <path d="M9366 1184 c-9 -8 -16 -24 -16 -35 0 -40 19 -57 75 -70 47 -10 55 -15 55 -35 0 -31 -31 -46 -78 -39 -35 6 -36 5 -18 -9 30 -24 99 -21 122 5 16 18 19 34 16 96 -2 69 0 75 19 80 16 4 17 8 7 14 -19 13 -56 11 -60 -2 -3 -9 -9 -9 -25 0 -31 16 -79 14 -97 -5z m112 -51 c3 -36 0 -43 -15 -43 -64 1 -93 40 -53 72 13 11 33 18 44 16 17 -2 22 -11 24 -45z"/>
 <path d="M9622 1192 c-8 -5 -13 -38 -14 -96 -1 -67 -5 -89 -17 -96 -14 -8 -14 -9 1 -10 10 0 20 -11 24 -25 3 -13 12 -29 20 -36 12 -9 14 -5 14 25 0 35 1 36 35 36 19 0 35 5 35 10 0 6 -16 10 -35 10 l-36 0 3 83 3 82 35 5 c33 5 34 6 10 13 -33 9 -62 9 -78 -1z"/>
 <path d="M9763 1186 c14 -11 17 -29 17 -94 0 -67 -3 -83 -17 -91 -14 -8 -15 -10 -3 -11 8 0 25 -3 38 -6 22 -6 22 -5 22 91 0 81 3 100 18 111 15 12 10 13 -38 13 -48 0 -53 -1 -37 -13z"/>
 <path d="M9919 1171 c-48 -49 -38 -146 20 -176 49 -25 98 -20 132 14 24 25 29 38 29 78 -1 73 -42 113 -115 113 -27 0 -44 -8 -66 -29z m116 -6 c35 -34 35 -111 0 -149 -28 -31 -45 -33 -74 -8 -40 32 -40 123 -1 162 26 26 46 25 75 -5z"/>
 <path d="M10153 1186 c14 -11 17 -29 17 -94 0 -67 -3 -83 -17 -91 -14 -8 -15 -10 -3 -11 8 0 25 -3 38 -6 16 -5 22 -2 22 10 0 15 3 15 30 1 40 -21 76 -19 100 5 17 17 20 33 20 96 0 61 4 79 18 90 15 12 10 13 -38 13 -48 0 -53 -1 -37 -13 13 -10 17 -28 17 -83 0 -82 -10 -96 -67 -91 l-38 3 -3 79 c-2 66 0 80 15 92 16 12 12 13 -37 13 -48 0 -53 -1 -37 -13z"/>
 <path d="M10562 1193 c-18 -7 -34 -51 -27 -73 6 -19 38 -34 93 -45 25 -5 32 -12 32 -30 0 -32 -31 -48 -75 -39 -22 4 -35 2 -35 -4 0 -14 82 -26 115 -18 33 9 45 41 45 127 0 56 3 69 16 69 8 0 12 5 9 10 -8 13 -52 13 -60 0 -4 -7 -12 -7 -25 0 -20 10 -66 12 -88 3z m96 -60 c3 -38 1 -43 -18 -43 -34 0 -60 19 -60 43 0 31 20 48 50 45 22 -3 25 -9 28 -45z"/>
 <path d="M10783 1186 c14 -11 17 -29 17 -94 0 -75 -2 -81 -22 -88 -20 -7 -18 -9 16 -16 27 -6 42 -5 47 3 5 8 12 8 27 0 31 -17 77 -13 95 7 13 14 17 38 17 95 0 67 3 78 22 91 22 15 20 16 -31 16 -45 0 -52 -2 -42 -14 8 -9 11 -43 9 -93 l-3 -78 -45 0 -45 0 -3 80 c-2 66 0 82 14 92 15 11 10 13 -37 13 -47 -1 -52 -2 -36 -14z"/>
 <path d="M11077 1172 c-22 -23 -27 -37 -27 -79 0 -46 4 -54 35 -82 29 -25 45 -31 80 -31 l45 0 0 -49 c0 -37 -4 -51 -17 -56 -16 -7 -15 -9 7 -15 51 -16 50 -20 50 150 0 133 3 162 15 166 8 4 12 10 9 15 -7 12 -51 11 -59 -1 -4 -7 -12 -7 -25 0 -36 19 -85 12 -113 -18z m117 2 c13 -5 16 -23 16 -90 l0 -84 -38 0 c-54 0 -77 27 -77 92 0 40 5 53 24 69 24 20 47 24 75 13z"/>
 <path d="M11458 1188 c21 -11 22 -16 22 -153 0 -137 -1 -142 -22 -153 -19 -9 -8 -11 58 -11 102 -1 139 11 153 51 13 37 -7 93 -38 103 -12 3 -21 11 -21 17 0 17 53 99 84 130 l28 28 -28 0 c-39 0 -46 -6 -84 -70 -69 -115 -90 -120 -90 -24 0 52 4 70 18 80 15 12 9 13 -43 13 -50 0 -56 -2 -37 -11z m146 -173 c12 -9 19 -28 20 -55 1 -49 -20 -70 -71 -70 l-33 0 0 70 0 70 33 0 c17 0 40 -7 51 -15z"/>
 <path d="M11771 1169 c-24 -24 -31 -39 -31 -71 0 -48 31 -103 63 -112 30 -8 80 -7 93 2 16 11 34 48 34 71 0 19 -6 21 -75 21 l-75 0 6 28 c4 15 11 32 16 39 15 18 76 36 104 29 13 -4 24 -2 24 3 0 12 -36 21 -87 21 -33 0 -48 -6 -72 -31z m114 -136 c-7 -28 -21 -43 -40 -43 -21 0 -55 32 -55 51 0 16 7 19 51 19 51 0 51 0 44 -27z"/>
 <path d="M11973 1184 c-3 -8 -1 -25 5 -37 10 -22 10 -22 17 6 6 23 12 27 45 27 66 0 65 -52 -2 -72 -102 -30 -84 -128 23 -128 54 0 59 4 48 40 l-7 25 -7 -22 c-6 -18 -15 -23 -40 -23 -34 0 -61 22 -50 40 4 6 31 22 61 35 52 23 60 33 55 75 -1 8 -11 23 -23 33 -27 23 -116 24 -125 1z"/>
 <path d="M12198 1171 c-29 -25 -32 -34 -31 -82 1 -46 5 -57 32 -81 33 -30 85 -37 121 -18 16 8 40 58 40 81 0 5 -34 9 -75 9 -69 0 -75 2 -75 21 0 11 4 29 10 39 13 24 73 44 107 35 23 -5 25 -4 14 9 -9 11 -30 16 -62 16 -39 0 -55 -5 -81 -29z m112 -136 c0 -23 -24 -45 -49 -45 -14 0 -51 41 -51 57 0 9 15 13 50 13 46 0 50 -2 50 -25z"/>
 <path d="M12408 1188 c-51 -40 -16 -100 65 -112 35 -5 47 -12 47 -24 0 -35 -18 -47 -65 -46 -48 1 -60 -10 -22 -20 44 -12 87 -6 107 14 17 17 20 33 20 100 0 66 3 80 16 80 8 0 12 5 9 10 -8 13 -52 13 -60 0 -4 -7 -12 -7 -25 0 -26 14 -73 13 -92 -2z m90 -14 c18 -5 22 -13 22 -45 0 -35 -3 -39 -26 -39 -38 0 -64 18 -64 43 0 40 22 53 68 41z"/>
 <path d="M12633 1186 c24 -19 25 -170 1 -184 -13 -7 -10 -10 17 -16 20 -4 35 -2 40 5 5 8 12 8 27 0 36 -19 52 -14 52 19 0 32 -14 40 -24 14 -3 -9 -15 -14 -28 -12 -21 3 -23 9 -26 86 -2 67 0 82 12 82 8 0 18 5 21 10 4 6 -16 10 -52 10 -50 -1 -56 -2 -40 -14z"/>
 <path d="M12837 1172 c-47 -49 -34 -148 24 -177 29 -16 97 -20 114 -7 6 4 8 20 5 37 l-7 30 -11 -27 c-15 -36 -61 -38 -92 -6 -22 24 -27 86 -10 118 12 23 73 44 106 36 13 -4 24 -2 24 3 0 12 -36 21 -86 21 -31 0 -46 -6 -67 -28z"/>
 <path d="M13033 1189 c15 -9 17 -28 17 -159 0 -127 -2 -150 -16 -158 -13 -7 -10 -10 16 -16 18 -3 35 -4 38 -1 3 2 4 37 3 76 -2 65 0 71 16 64 43 -19 91 -17 112 4 18 18 21 33 21 97 0 61 4 79 18 90 15 12 10 13 -38 13 -42 0 -51 -2 -37 -10 13 -8 17 -24 17 -78 0 -85 -12 -104 -65 -99 l-40 3 -3 69 c-2 49 1 75 13 92 l15 24 -52 0 c-41 -1 -49 -3 -35 -11z"/>
 <path d="M13425 1190 c3 -5 12 -10 18 -10 9 0 12 -39 12 -145 0 -134 -1 -145 -20 -154 -16 -8 -11 -10 26 -10 l45 -1 24 58 c13 31 36 84 51 117 14 33 28 66 30 73 2 6 29 -45 59 -115 l56 -128 44 -2 c44 -3 44 -2 23 13 -22 16 -23 23 -23 149 0 126 1 133 23 148 21 15 19 16 -38 16 -52 0 -58 -1 -42 -13 15 -11 17 -31 17 -137 l0 -124 -36 85 c-20 47 -43 101 -51 120 -21 53 -28 63 -38 60 -6 -2 -35 -61 -65 -131 l-55 -128 -3 121 c-2 106 0 122 15 134 16 12 12 13 -30 14 -30 0 -46 -4 -42 -10z"/>
 <path d="M13897 1185 c-28 -21 -46 -81 -36 -124 18 -82 120 -111 180 -52 24 24 29 38 29 76 0 40 -5 52 -34 81 -28 28 -41 34 -77 34 -24 0 -52 -7 -62 -15z m100 -10 c40 -28 39 -127 -2 -168 -23 -23 -42 -21 -70 8 -20 19 -25 34 -25 75 0 41 5 56 25 75 28 29 42 31 72 10z"/>
 <path d="M14123 1186 c15 -12 17 -32 17 -159 0 -128 -2 -146 -17 -152 -16 -7 -15 -9 7 -15 49 -15 50 -14 50 66 0 69 2 75 18 69 94 -40 132 -5 132 121 0 49 4 65 18 73 13 8 4 10 -38 10 -48 0 -53 -1 -37 -13 19 -15 24 -106 7 -150 -8 -23 -15 -26 -55 -26 l-45 0 0 85 c0 69 3 86 18 94 13 8 4 10 -38 10 -48 0 -53 -1 -37 -13z"/>
 <path d="M14396 1178 c-9 -12 -16 -30 -16 -39 0 -26 44 -56 95 -63 50 -8 57 -24 24 -57 -17 -17 -28 -19 -62 -14 -33 6 -40 4 -30 -5 6 -7 34 -15 61 -18 44 -4 51 -2 71 24 20 25 22 38 19 89 -6 69 -2 85 18 85 9 0 12 5 9 10 -9 14 -48 13 -63 -2 -9 -9 -15 -9 -24 0 -21 21 -85 15 -102 -10z m108 -6 c2 -4 7 -24 11 -45 7 -35 6 -37 -20 -37 -42 0 -65 17 -65 50 0 15 6 31 13 33 19 8 55 8 61 -1z"/>
 <path d="M14625 1189 c19 -9 20 -20 21 -159 1 -141 0 -149 -20 -158 -20 -10 -20 -11 -1 -11 11 -1 30 -4 43 -7 l22 -6 0 165 c0 148 2 167 18 176 13 8 2 10 -43 10 -46 0 -55 -3 -40 -10z"/>
 <path d="M14763 1186 c14 -11 17 -29 17 -94 0 -67 -3 -83 -17 -91 -14 -8 -15 -10 -3 -11 8 0 25 -3 38 -6 22 -6 22 -5 22 91 0 81 3 100 18 111 15 12 10 13 -38 13 -48 0 -53 -1 -37 -13z"/>
 <path d="M2255 1124 c-3 -20 -3 -40 2 -44 4 -4 33 -11 64 -14 l57 -7 5 38 c6 50 -8 65 -17 18 -8 -40 -26 -42 -37 -4 l-7 24 -7 -23 c-12 -36 -41 -24 -37 16 3 44 -14 41 -23 -4z"/>
 <path d="M200 1106 c-42 -8 -55 -15 -54 -28 3 -70 5 -79 15 -73 5 4 9 21 7 37 -3 36 20 52 29 19 8 -30 21 -26 15 4 -3 20 0 25 17 25 16 0 23 -8 28 -30 8 -44 25 -37 17 8 -3 20 -9 40 -13 43 -3 3 -31 1 -61 -5z"/>
 <path d="M2240 1049 c0 -6 9 -22 20 -36 27 -35 25 -44 -10 -36 -45 9 -37 -13 13 -31 69 -25 80 -24 91 7 14 39 -3 63 -41 60 -23 -2 -33 3 -43 22 -14 26 -30 33 -30 14z m97 -65 c8 -21 -13 -42 -28 -27 -13 13 -5 43 11 43 6 0 13 -7 17 -16z"/>
 <path d="M226 919 c-46 -36 -25 -109 33 -109 25 0 71 45 71 69 0 28 -30 61 -54 61 -13 0 -35 -9 -50 -21z m72 -15 c5 -9 7 -25 5 -35 -5 -19 -49 -39 -70 -32 -21 7 -15 49 10 66 29 21 44 21 55 1z"/>
 <path d="M3490 895 c0 -18 5 -25 19 -25 23 0 34 23 18 39 -19 19 -37 12 -37 -14z"/>
 <path d="M5050 895 c0 -18 5 -25 19 -25 26 0 36 17 21 35 -19 23 -40 18 -40 -10z"/>
 <path d="M7133 909 c-16 -16 -5 -39 19 -39 14 0 19 6 16 22 -4 25 -19 33 -35 17z"/>
 <path d="M9778 908 c-8 -21 2 -38 24 -38 14 0 19 6 16 22 -3 25 -33 36 -40 16z"/>
 <path d="M14776 905 c-8 -22 1 -35 25 -35 15 0 20 6 17 22 -4 27 -33 36 -42 13z"/>
 <path d="M2183 848 c-37 -47 -35 -54 26 -86 l58 -31 12 25 c17 37 13 61 -11 84 -24 22 -70 27 -85 8z m69 -25 c18 -16 24 -44 12 -56 -6 -6 -38 8 -73 32 -12 8 -12 12 -2 25 17 21 40 20 63 -1z"/>
 <path d="M303 797 c-29 -17 -53 -35 -53 -40 0 -4 7 -24 15 -44 12 -27 18 -34 27 -25 8 8 7 17 -5 36 -14 20 -14 26 -2 36 10 9 15 7 20 -9 3 -12 11 -21 16 -21 11 0 11 7 -1 29 -7 15 -4 20 15 29 14 7 25 18 25 27 0 19 5 20 -57 -18z"/>
 <path d="M2130 758 c0 -7 7 -31 14 -53 8 -22 12 -42 10 -44 -2 -3 -17 8 -33 23 -21 20 -31 24 -36 15 -8 -12 14 -33 73 -69 36 -22 37 -20 18 43 l-14 46 33 -25 c22 -17 35 -21 40 -14 4 6 5 12 4 14 -2 1 -22 16 -44 32 -56 43 -65 47 -65 32z"/>
 <path d="M420 674 c0 -4 7 -12 17 -19 9 -7 14 -19 10 -28 -5 -13 -11 -14 -36 -4 -31 11 -61 -2 -61 -27 0 -18 27 -52 36 -44 4 4 1 14 -5 22 -20 24 -5 36 28 23 15 -5 35 -7 45 -4 23 9 21 63 -3 77 -23 12 -31 13 -31 4z"/>
 <path d="M2062 646 c3 -28 -18 -57 -37 -50 -7 3 -16 1 -19 -4 -6 -10 111 -59 120 -50 6 7 -49 128 -59 128 -5 0 -7 -11 -5 -24z m28 -56 c11 -21 4 -25 -19 -11 -7 5 -10 14 -7 20 10 15 14 14 26 -9z"/>
 <path d="M472 583 c-15 -6 -42 -55 -42 -76 0 -22 35 -61 48 -53 8 5 5 13 -8 26 -26 26 -25 42 6 71 l26 24 23 -27 c30 -35 42 -20 14 16 -20 25 -39 30 -67 19z"/>
 <path d="M1943 523 c1 -10 0 -34 -2 -53 l-2 -35 -23 29 c-13 15 -26 24 -30 18 -3 -5 13 -34 37 -63 l42 -53 3 59 3 58 20 -32 c10 -17 24 -29 30 -26 6 4 6 12 2 18 -5 7 -22 31 -37 55 -31 45 -43 52 -43 25z"/>
 <path d="M541 469 c-18 -27 -30 -53 -27 -56 3 -4 7 -4 9 -2 2 2 17 22 33 44 43 57 47 65 31 65 -7 0 -28 -23 -46 -51z"/>
 <path d="M587 436 l-37 -55 32 -25 c39 -30 58 -24 21 8 -31 26 -24 53 8 35 25 -13 41 -1 16 12 -19 11 -21 18 -7 39 7 12 12 12 29 -5 30 -26 39 -10 11 20 -13 14 -27 25 -30 25 -4 0 -23 -25 -43 -54z"/>
 <path d="M1808 429 c-25 -14 -23 -70 3 -103 25 -31 38 -32 73 -5 33 26 33 58 1 93 -25 27 -49 32 -77 15z m67 -38 c18 -35 11 -61 -17 -61 -25 0 -47 27 -48 56 0 44 43 47 65 5z"/>
 <path d="M674 364 c-14 -31 -23 -58 -21 -60 2 -2 21 5 42 16 54 28 60 25 36 -15 -19 -33 -14 -58 7 -32 15 19 54 108 49 113 -2 3 -25 -6 -50 -20 l-46 -24 14 35 c18 42 18 43 4 43 -5 0 -21 -25 -35 -56z"/>
 <path d="M1736 382 c-8 -14 39 -122 54 -122 15 0 12 8 -19 74 -16 36 -30 55 -35 48z"/>
 <path d="M806 341 c-10 -11 -20 -37 -23 -59 -5 -37 -3 -42 25 -56 36 -18 42 -19 42 -7 0 5 -9 12 -19 16 -24 7 -35 49 -21 75 12 22 56 27 63 8 3 -10 8 -10 17 -2 9 9 6 15 -11 28 -31 21 -52 20 -73 -3z"/>
 <path d="M1650 347 c0 -1 9 -27 20 -57 11 -30 20 -55 20 -56 0 -1 -9 -4 -21 -7 -12 -3 -18 -10 -15 -15 4 -6 26 -2 56 11 27 11 47 24 44 29 -3 5 -13 6 -23 3 -13 -4 -22 5 -34 30 -9 20 -17 42 -17 50 0 8 -7 15 -15 15 -8 0 -15 -1 -15 -3z"/>
 <path d="M920 327 c0 -1 -9 -32 -19 -68 l-19 -66 36 -11 c21 -7 40 -8 45 -3 5 5 -4 12 -22 16 -34 7 -34 7 -25 28 3 8 13 13 24 10 10 -3 21 0 24 6 4 7 -1 11 -13 11 -16 0 -21 6 -21 26 0 21 3 25 18 19 35 -15 52 -17 52 -8 0 6 -18 17 -40 26 -22 8 -40 15 -40 14z"/>
 <path d="M1600 315 c0 -23 -42 -36 -56 -17 -7 10 -13 12 -18 4 -4 -6 13 -36 36 -67 l43 -55 7 38 c10 56 9 112 -2 112 -5 0 -10 -7 -10 -15z m0 -55 c0 -11 -4 -20 -9 -20 -11 0 -22 26 -14 34 12 12 23 5 23 -14z"/>
 <path d="M1470 292 c-47 -15 -66 -76 -37 -116 15 -20 78 -27 84 -9 3 8 -6 11 -23 10 -21 -2 -32 5 -43 25 -20 34 -6 62 33 66 27 3 35 17 14 24 -7 3 -20 3 -28 0z"/>
 <path d="M1069 250 c0 -19 -2 -48 -4 -65 -2 -16 1 -33 8 -37 17 -11 65 -10 72 2 4 6 -6 10 -23 10 -16 0 -31 3 -35 6 -8 8 3 35 12 30 4 -3 13 -1 20 4 10 6 8 9 -8 15 -12 3 -21 15 -21 26 0 14 7 19 30 19 44 0 36 17 -10 22 -40 4 -40 3 -41 -32z"/>
 <path d="M1179 263 c-1 -5 -2 -36 -3 -70 -1 -62 -1 -63 27 -63 58 0 92 85 49 123 -19 17 -71 24 -73 10z m48 -21 c7 -4 15 -22 19 -39 5 -25 2 -33 -14 -42 -31 -16 -32 -15 -32 39 0 50 4 57 27 42z"/>
 <path d="M1312 258 c-17 -17 -16 -128 1 -128 10 0 12 15 9 60 -4 59 -4 60 21 60 23 0 26 -5 32 -55 4 -30 12 -55 18 -55 10 0 3 103 -9 121 -8 13 -58 11 -72 -3z"/>
 </g>
<g id="layer2" fill="#786fa5" stroke="none">
 <path d="M1203 2640 c0 -47 2 -66 4 -42 2 23 2 61 0 85 -2 23 -4 4 -4 -43z"/>
 <path d="M1353 2640 c0 -47 2 -66 4 -42 2 23 2 61 0 85 -2 23 -4 4 -4 -43z"/>
 <path d="M1592 2640 c0 -14 2 -19 5 -12 2 6 2 18 0 25 -3 6 -5 1 -5 -13z"/>
 <path d="M1682 2640 c0 -14 2 -19 5 -12 2 6 2 18 0 25 -3 6 -5 1 -5 -13z"/>
 <path d="M466 2062 c-3 -5 1 -9 9 -9 8 0 12 4 9 9 -3 4 -7 8 -9 8 -2 0 -6 -4 -9 -8z"/>
 <path d="M551 1964 c0 -11 3 -14 6 -6 3 7 2 16 -1 19 -3 4 -6 -2 -5 -13z"/>
 <path d="M1408 1963 c7 -3 16 -2 19 1 4 3 -2 6 -13 5 -11 0 -14 -3 -6 -6z"/>
 <path d="M1299 1843 c-13 -16 -12 -17 4 -4 9 7 17 15 17 17 0 8 -8 3 -21 -13z"/>
 <path d="M2365 1380 c-3 -6 1 -7 9 -4 18 7 21 14 7 14 -6 0 -13 -4 -16 -10z"/>
 <path d="M780 1296 c0 -2 8 -10 18 -17 15 -13 16 -12 3 4 -13 16 -21 21 -21 13z"/>
 <path d="M1381 1264 c0 -11 3 -14 6 -6 3 7 2 16 -1 19 -3 4 -6 -2 -5 -13z"/>
 <path d="M1615 330 c3 -5 8 -10 11 -10 2 0 4 5 4 10 0 6 -5 10 -11 10 -5 0 -7 -4 -4 -10z"/>
 <path d="M1592 260 c0 -14 2 -19 5 -12 2 6 2 18 0 25 -3 6 -5 1 -5 -13z"/>
 </g>
<g id="layer3" fill="#574a8f" stroke="none">
 <path d="M2103 2640 c0 -47 2 -66 4 -42 2 23 2 61 0 85 -2 23 -4 4 -4 -43z"/>
 <path d="M2451 2704 c0 -11 3 -14 6 -6 3 7 2 16 -1 19 -3 4 -6 -2 -5 -13z"/>
 <path d="M853 2615 c0 -33 2 -45 4 -27 2 18 2 45 0 60 -2 15 -4 0 -4 -33z"/>
 <path d="M1011 2574 c0 -11 3 -14 6 -6 3 7 2 16 -1 19 -3 4 -6 -2 -5 -13z"/>
 <path d="M1701 2154 c0 -11 3 -14 6 -6 3 7 2 16 -1 19 -3 4 -6 -2 -5 -13z"/>
 <path d="M420 1906 c0 -2 8 -10 18 -17 15 -13 16 -12 3 4 -13 16 -21 21 -21 13z"/>
 <path d="M292 1740 c0 -14 2 -19 5 -12 2 6 2 18 0 25 -3 6 -5 1 -5 -13z"/>
 <path d="M1760 1753 c0 -6 8 -17 18 -24 16 -13 16 -13 2 6 -8 11 -16 22 -17 24 -2 2 -3 0 -3 -6z"/>
 <path d="M788 1443 c7 -3 16 -2 19 1 4 3 -2 6 -13 5 -11 0 -14 -3 -6 -6z"/>
 <path d="M165 1070 c-3 -6 1 -7 9 -4 18 7 21 14 7 14 -6 0 -13 -4 -16 -10z"/>
 <path d="M1321 204 c0 -11 3 -14 6 -6 3 7 2 16 -1 19 -3 4 -6 -2 -5 -13z"/>
 </g>
<g id="layer4" fill="#473984" stroke="none">
 <path d="M558 2623 c6 -2 18 -2 25 0 6 3 1 5 -13 5 -14 0 -19 -2 -12 -5z"/>
 <path d="M633 2115 c0 -8 4 -12 9 -9 5 3 6 10 3 15 -9 13 -12 11 -12 -6z"/>
 <path d="M1961 2084 c0 -11 3 -14 6 -6 3 7 2 16 -1 19 -3 4 -6 -2 -5 -13z"/>
 <path d="M1306 1957 c3 -10 9 -15 12 -12 3 3 0 11 -7 18 -10 9 -11 8 -5 -6z"/>
 <path d="M1331 1914 c0 -11 3 -14 6 -6 3 7 2 16 -1 19 -3 4 -6 -2 -5 -13z"/>
 <path d="M351 1734 c0 -11 3 -14 6 -6 3 7 2 16 -1 19 -3 4 -6 -2 -5 -13z"/>
 <path d="M1189 1433 c-13 -16 -12 -17 4 -4 9 7 17 15 17 17 0 8 -8 3 -21 -13z"/>
 <path d="M780 1226 c0 -2 8 -10 18 -17 15 -13 16 -12 3 4 -13 16 -21 21 -21 13z"/>
 <path d="M1260 940 c0 -5 5 -10 11 -10 5 0 7 5 4 10 -3 6 -8 10 -11 10 -2 0 -4 -4 -4 -10z"/>
 <path d="M1031 764 c0 -11 3 -14 6 -6 3 7 2 16 -1 19 -3 4 -6 -2 -5 -13z"/>
 <path d="M507 409 c7 -7 15 -10 18 -7 3 3 -2 9 -12 12 -14 6 -15 5 -6 -5z"/>
 <path d="M1586 303 c-6 -14 -5 -15 5 -6 7 7 10 15 7 18 -3 3 -9 -2 -12 -12z"/>
 <path d="M1135 140 c-3 -5 -1 -10 4 -10 6 0 11 5 11 10 0 6 -2 10 -4 10 -3 0 -8 -4 -11 -10z"/>
 <path d="M1203 3 c31 -2 83 -2 115 0 31 2 5 3 -58 3 -63 0 -89 -1 -57 -3z"/>
 </g>
<g id="layer5" fill="#291670" stroke="none">
 <path d="M0 2640 l0 -180 493 -1 c489 -1 492 -1 432 -18 -431 -129 -759 -485 -862 -936 -23 -101 -27 -376 -7 -479 34 -176 95 -328 189 -473 67 -104 239 -278 335 -341 100 -66 238 -130 352 -164 93 -27 120 -31 278 -35 194 -6 274 3 402 43 357 112 639 374 779 724 157 392 103 841 -142 1190 -71 102 -216 243 -320 313 -99 65 -187 108 -309 148 l-85 28 488 1 487 0 0 180 0 180 -1255 0 -1255 0 0 -180z m100 0 c0 -64 -3 -80 -15 -80 -12 0 -15 16 -15 80 0 64 3 80 15 80 12 0 15 -16 15 -80z m40 33 l1 -48 25 48 c38 73 54 63 54 -33 0 -64 -3 -80 -15 -80 -11 0 -15 11 -15 43 l0 42 -23 -39 c-37 -65 -47 -58 -47 33 0 47 4 81 10 81 6 0 10 -21 10 -47z m170 17 c0 -25 4 -30 23 -30 30 0 47 -18 47 -50 0 -35 -17 -50 -57 -50 l-33 0 0 80 c0 47 4 80 10 80 6 0 10 -13 10 -30z m180 11 c5 -11 10 -47 10 -80 0 -47 -3 -61 -15 -61 -10 0 -15 16 -17 63 -2 47 -7 62 -18 62 -11 0 -16 -15 -18 -62 -2 -47 -7 -63 -17 -63 -12 0 -15 14 -15 61 0 76 12 99 50 99 19 0 33 -7 40 -19z m60 -11 c0 -16 4 -30 10 -30 5 0 16 14 25 30 9 17 22 30 30 30 19 0 19 -4 0 -40 -9 -18 -11 -31 -5 -35 14 -9 13 -58 -2 -73 -7 -7 -29 -12 -50 -12 l-38 0 0 80 c0 64 3 80 15 80 10 0 15 -10 15 -30z m180 9 c18 -32 4 -66 -30 -77 -31 -11 -41 -32 -15 -32 8 0 15 5 15 10 0 6 7 10 16 10 10 0 14 -7 12 -22 -2 -17 -11 -24 -31 -26 -63 -7 -79 61 -19 87 36 16 43 41 12 41 -11 0 -20 -7 -20 -15 0 -8 -7 -15 -15 -15 -18 0 -20 31 -3 48 20 20 66 15 78 -9z m117 -9 c19 -37 17 -130 -2 -130 -11 0 -15 12 -15 49 0 58 -7 81 -25 81 -18 0 -25 -23 -25 -81 0 -37 -4 -49 -15 -49 -22 0 -21 107 1 138 21 31 64 26 81 -8z m53 -50 c0 -67 -3 -80 -16 -80 -11 0 -14 5 -10 16 3 9 6 45 6 80 0 36 4 64 10 64 6 0 10 -33 10 -80z m80 15 c0 -58 2 -65 20 -65 11 0 20 -7 20 -15 0 -11 -12 -15 -50 -15 -38 0 -50 4 -50 15 0 8 7 15 15 15 12 0 15 14 15 65 0 51 3 65 15 65 12 0 15 -14 15 -65z m194 43 c35 -50 9 -138 -40 -138 -36 0 -64 33 -64 78 0 50 23 82 60 82 18 0 34 -8 44 -22z m56 -13 c0 -31 3 -35 25 -35 16 0 25 -6 25 -15 0 -9 -9 -15 -25 -15 -16 0 -25 -6 -25 -15 0 -10 10 -15 30 -15 20 0 30 -5 30 -15 0 -11 -12 -15 -45 -15 l-45 0 0 80 c0 64 3 80 15 80 10 0 15 -11 15 -35z m150 11 c0 -13 6 -28 13 -34 10 -9 16 -4 26 23 8 24 19 35 32 35 19 0 18 -2 -5 -48 -24 -47 -24 -48 -5 -72 22 -30 24 -40 5 -40 -8 0 -26 15 -40 33 l-26 32 0 -32 c0 -23 -5 -33 -15 -33 -12 0 -15 16 -15 80 0 64 3 80 15 80 9 0 15 -9 15 -24z m120 -23 l1 -48 25 48 c38 73 54 63 54 -33 0 -63 -3 -80 -14 -80 -10 0 -16 14 -18 42 l-3 42 -20 -42 c-32 -66 -45 -55 -45 38 0 47 4 80 10 80 6 0 10 -21 10 -47z m196 26 c40 -44 12 -139 -40 -139 -59 1 -87 81 -45 134 25 31 59 34 85 5z m89 -19 c4 -22 10 -40 15 -40 4 0 10 18 14 40 7 44 32 55 41 18 29 -131 30 -138 11 -138 -9 0 -17 18 -23 48 l-10 47 -7 -47 c-11 -64 -39 -67 -53 -5 l-10 42 -8 -42 c-5 -28 -13 -43 -22 -43 -12 0 -13 9 -8 43 19 119 47 155 60 77z m195 25 c0 -10 -10 -15 -30 -15 l-30 0 0 -65 c0 -51 -3 -65 -15 -65 -12 0 -15 16 -15 80 l0 80 45 0 c33 0 45 -4 45 -15z m110 0 c0 -10 -11 -15 -35 -15 -28 0 -35 -4 -35 -20 0 -16 7 -20 30 -20 20 0 30 -5 30 -15 0 -10 -10 -15 -30 -15 -42 0 -40 -28 2 -32 55 -5 46 -28 -11 -28 l-51 0 0 80 0 80 50 0 c38 0 50 -4 50 -15z m104 -7 c9 -12 16 -39 16 -60 0 -49 -28 -78 -75 -78 l-35 0 0 80 0 80 39 0 c30 0 44 -6 55 -22z m134 10 c7 -7 12 -27 12 -45 0 -30 -3 -33 -30 -33 -20 0 -30 5 -30 15 0 8 7 15 15 15 20 0 19 19 -1 27 -11 4 -22 -1 -30 -12 -31 -42 -3 -101 37 -77 37 23 53 8 23 -22 -41 -42 -111 8 -100 73 3 18 13 42 22 52 19 21 64 25 82 7z m132 -3 c0 -10 -11 -15 -35 -15 -28 0 -35 -4 -35 -20 0 -16 7 -20 30 -20 20 0 30 -5 30 -15 0 -10 -10 -15 -30 -15 -20 0 -30 -5 -30 -15 0 -10 10 -15 30 -15 20 0 30 -5 30 -15 0 -11 -12 -15 -45 -15 l-45 0 0 80 0 80 50 0 c38 0 50 -4 50 -15z m-1057 -407 c-12 -90 -22 -168 -23 -174 0 -6 30 -19 68 -28 326 -82 572 -332 649 -660 25 -107 22 -297 -6 -406 -57 -215 -185 -395 -366 -516 -240 -160 -543 -184 -817 -65 -222 96 -407 319 -479 576 -33 115 -33 326 -1 439 91 320 337 562 643 632 38 9 69 17 69 18 0 10 -41 306 -45 324 l-5 22 168 0 168 0 -23 -162z m-386 -4 c15 -67 15 -84 0 -84 -11 0 -37 89 -37 129 0 32 26 0 37 -45z m523 46 c0 -28 -25 -140 -32 -140 -15 0 -18 21 -7 72 5 29 12 59 14 66 5 15 25 16 25 2z m-579 -77 c10 -31 15 -61 12 -66 -8 -13 -33 22 -33 46 0 10 -4 15 -10 12 -5 -3 -10 -12 -10 -20 0 -8 -5 -26 -10 -41 -14 -36 -28 -21 -46 47 -17 65 -6 86 18 34 9 -22 18 -34 18 -27 0 23 30 85 37 78 4 -4 15 -32 24 -63z m684 47 c6 -9 -22 -108 -35 -123 -10 -12 -73 6 -78 22 -4 11 3 13 26 8 36 -7 46 4 57 66 7 36 18 46 30 27z m-816 -64 c35 -80 35 -83 1 -101 -29 -15 -34 -15 -56 -1 -46 31 -44 105 4 130 15 9 28 15 29 16 1 0 11 -20 22 -44z m907 3 c-3 -17 -6 -54 -6 -81 0 -44 -2 -49 -15 -38 -8 7 -15 18 -15 25 0 18 -30 27 -46 14 -7 -6 -18 -8 -24 -4 -7 4 7 27 37 60 57 62 78 70 69 24z m89 -19 c3 -5 0 -18 -7 -29 -11 -18 -10 -23 7 -35 18 -13 21 -12 37 12 29 44 34 1 5 -45 -13 -21 -27 -47 -31 -57 -4 -13 -10 -16 -17 -9 -6 6 -6 19 1 38 9 23 7 30 -7 40 -16 12 -20 10 -33 -11 -8 -13 -20 -24 -27 -24 -18 0 -17 2 17 60 17 28 30 55 30 60 0 13 17 13 25 0z m-1095 -61 c17 -34 29 -63 28 -64 -47 -32 -52 -34 -65 -23 -17 14 -41 -5 -45 -35 -2 -12 -7 -21 -13 -20 -12 2 -36 99 -32 130 2 20 6 19 61 -23 33 -24 61 -42 64 -40 2 3 -9 32 -26 65 -27 55 -28 62 -5 70 1 1 16 -27 33 -60z m1242 -36 c39 -35 3 -133 -50 -133 -37 0 -69 58 -51 93 30 58 66 72 101 40z m-1363 -128 c-7 -7 -19 0 -36 20 l-26 30 6 -51 c4 -28 4 -53 1 -56 -6 -7 -94 87 -94 101 0 21 16 19 37 -6 l22 -28 1 55 1 55 49 -55 c34 -37 46 -58 39 -65z m1452 31 c-5 -6 -15 -24 -20 -39 l-11 -27 40 20 c21 11 41 16 45 11 3 -5 1 -12 -4 -16 -6 -3 -22 -28 -37 -55 -15 -28 -31 -50 -35 -50 -16 0 -18 18 -4 36 22 30 18 36 -15 19 -28 -15 -30 -14 -30 4 0 11 5 23 10 26 6 3 10 11 10 17 0 6 -12 3 -26 -7 -17 -11 -30 -13 -36 -7 -6 6 12 24 49 49 54 37 87 47 64 19z m-1619 -109 c33 -29 45 -46 39 -55 -6 -10 -21 -1 -59 33 -29 26 -50 51 -46 56 9 15 16 11 66 -34z m-15 -62 c24 -16 30 -24 21 -33 -8 -8 -18 -6 -36 9 -14 10 -27 18 -29 16 -1 -2 3 -25 11 -50 8 -26 11 -47 8 -47 -11 0 -112 72 -112 80 0 18 15 18 38 0 31 -25 34 -22 22 21 -20 70 -21 70 77 4z m1776 21 c3 -8 -5 -19 -18 -26 -22 -12 -23 -14 -8 -37 15 -22 17 -23 35 -7 12 12 22 14 29 7 6 -6 -9 -24 -47 -52 -42 -32 -59 -39 -65 -30 -5 8 0 18 12 27 21 14 24 29 9 52 -7 12 -12 11 -30 -5 -14 -13 -24 -15 -31 -8 -8 8 5 23 43 51 60 46 64 47 71 28z m-1895 -98 c6 -7 12 -26 14 -42 4 -34 28 -48 28 -17 0 12 6 21 15 21 8 0 15 -7 15 -16 0 -29 -21 -54 -45 -54 -27 0 -45 25 -45 64 0 14 -4 26 -10 26 -5 0 -10 -9 -10 -20 0 -24 -18 -27 -27 -5 -6 17 23 55 42 55 7 0 17 -6 23 -12z m1972 -37 c16 -32 12 -60 -15 -86 -26 -27 -62 -32 -87 -12 -20 15 -27 59 -11 64 6 2 13 -6 15 -19 2 -16 11 -24 30 -26 33 -4 62 32 48 59 -6 10 -10 22 -10 28 0 18 19 12 30 -8z m-2041 -63 c-13 -23 -16 -20 44 -46 44 -20 55 -31 41 -45 -3 -3 -26 5 -51 19 -46 24 -63 24 -63 -2 0 -16 -16 -19 -24 -5 -10 16 35 110 50 104 10 -4 11 -10 3 -25z m2097 -84 c8 -20 14 -37 12 -39 -10 -9 -67 -33 -91 -39 -43 -10 -24 -23 53 -37 39 -7 70 -16 70 -20 0 -5 -28 -27 -62 -49 -35 -22 -57 -40 -50 -40 7 0 12 -13 12 -30 0 -24 4 -30 21 -30 15 0 19 5 14 19 -3 12 0 21 10 25 11 4 15 -1 15 -19 0 -15 6 -25 14 -25 9 0 13 11 12 32 0 17 5 33 12 35 8 3 12 -7 12 -30 0 -20 3 -42 6 -50 4 -12 -8 -16 -63 -19 -37 -3 -69 -4 -71 -3 -1 1 -5 32 -9 69 -4 46 -3 66 6 66 6 0 11 11 11 25 0 14 -6 25 -13 25 -14 0 -37 40 -37 64 0 6 12 17 28 23 l27 11 -33 7 c-18 4 -37 16 -43 26 -5 11 -8 19 -7 19 2 0 17 -4 34 -9 25 -7 33 -5 42 10 20 31 51 24 68 -17z m-2101 -43 c33 -10 60 -24 60 -30 0 -17 -6 -17 -72 3 -43 13 -60 23 -56 32 3 8 6 14 7 14 0 0 28 -9 61 -19z m-58 -64 c-2 -19 5 -23 51 -31 33 -5 52 -14 52 -22 0 -16 -8 -16 -68 -5 -39 8 -43 7 -48 -15 -3 -12 -11 -21 -18 -18 -9 3 -10 19 -2 63 7 42 13 58 22 54 8 -3 12 -15 11 -26z m64 -127 c22 -12 27 -68 7 -88 -17 -17 -131 -16 -126 1 3 7 26 13 54 15 57 4 73 14 54 37 -8 9 -29 15 -56 15 -32 0 -44 4 -44 15 0 18 80 21 111 5z m2099 -146 c12 -31 30 -31 30 0 0 30 18 44 26 21 10 -24 -13 -65 -35 -65 -11 0 -29 14 -41 30 -24 34 -43 31 -34 -6 5 -18 2 -24 -10 -24 -21 0 -21 48 0 71 20 23 50 10 64 -27z m-2190 -5 c0 -20 3 -21 55 -15 43 5 55 3 55 -8 0 -13 -41 -26 -86 -26 -19 0 -24 -5 -24 -25 0 -38 -17 -30 -24 13 -10 60 -7 82 9 82 9 0 15 -9 15 -21z m2130 -89 c0 -15 7 -30 15 -34 11 -4 15 1 15 19 0 16 6 25 16 25 12 0 15 -7 12 -25 -4 -17 -1 -25 8 -25 9 0 14 11 14 30 0 20 5 30 15 30 16 0 19 -28 9 -67 -7 -25 -27 -28 -96 -17 -37 6 -38 8 -38 49 0 23 3 45 6 48 12 12 24 -4 24 -33z m-2006 -32 c9 -35 7 -68 -4 -68 -6 0 -13 14 -16 30 -7 33 -6 32 -27 24 -9 -3 -12 -14 -9 -30 5 -29 -14 -33 -23 -4 -10 31 -28 24 -23 -10 6 -40 -18 -48 -26 -8 -12 60 -9 65 47 75 75 15 74 15 81 -9z m1999 -61 c12 -18 22 -23 45 -19 35 5 48 -19 37 -68 -8 -36 -9 -36 -80 -9 -61 23 -78 53 -23 42 l32 -6 -22 28 c-23 28 -29 55 -13 55 5 0 16 -11 24 -23z m-1948 -141 c8 -35 7 -40 -18 -62 -35 -30 -70 -31 -97 -2 -24 26 -25 46 -2 74 21 27 38 33 77 31 26 -2 31 -7 40 -41z m1948 -58 c9 -11 17 -29 17 -39 0 -22 -21 -71 -29 -67 -60 30 -111 60 -111 67 0 5 12 24 26 41 22 25 32 30 53 25 14 -3 34 -15 44 -27z m-1933 -48 c-19 -14 -21 -20 -11 -38 14 -27 -5 -31 -24 -5 -19 26 -39 7 -20 -20 8 -12 15 -27 15 -34 0 -26 -20 -12 -40 27 l-20 40 42 27 c24 16 50 31 58 34 24 10 25 -13 0 -31z m1850 -57 c28 -21 50 -43 50 -50 0 -18 -13 -16 -44 8 -30 23 -32 18 -12 -39 8 -22 12 -42 9 -45 -5 -6 -113 73 -113 83 0 19 16 17 45 -5 l32 -24 -13 37 c-14 39 -18 72 -9 72 3 0 28 -17 55 -37z m-1725 -77 c13 -20 14 -29 5 -46 -10 -19 -18 -21 -50 -16 -42 7 -61 -7 -33 -23 13 -7 15 -13 7 -21 -14 -14 -44 13 -44 39 0 30 25 43 64 35 38 -7 47 4 21 26 -19 16 -19 30 0 30 8 0 22 -11 30 -24z m1644 -52 c17 -37 30 -69 28 -70 -2 -2 -33 6 -68 19 -66 24 -87 51 -39 52 20 0 25 5 27 25 2 38 2 40 12 40 5 0 23 -30 40 -66z m-1564 -34 c10 -11 15 -26 11 -36 -6 -16 -8 -15 -22 4 -17 24 -46 29 -61 10 -22 -28 -22 -48 -2 -67 14 -13 17 -21 9 -26 -18 -11 -50 25 -50 58 0 63 75 101 115 57z m1449 -79 c20 -27 36 -54 36 -60 0 -19 -18 -12 -39 17 l-20 27 -1 -52 c0 -29 -3 -53 -7 -52 -16 1 -84 100 -77 111 5 7 15 1 31 -18 l23 -29 0 53 c0 28 4 52 9 52 5 0 25 -22 45 -49z m-1425 -27 c-19 -26 -37 -52 -40 -57 -4 -5 -12 -6 -18 -2 -13 7 -3 27 46 93 17 22 29 30 35 24 7 -7 -1 -26 -23 -58z m96 2 c22 -18 27 -28 19 -36 -8 -8 -14 -7 -24 5 -14 17 -40 20 -40 5 0 -6 5 -19 12 -30 17 -26 3 -37 -21 -16 -16 14 -19 15 -24 2 -4 -9 4 -21 19 -31 14 -9 22 -20 19 -25 -9 -14 -17 -12 -49 14 l-29 24 23 39 c26 43 50 73 59 73 3 0 20 -11 36 -24z m1216 -45 c33 -33 38 -74 12 -103 -34 -38 -95 -9 -108 54 -6 27 -3 35 19 55 35 30 42 29 77 -6z m-1158 3 c3 -4 0 -19 -8 -35 -21 -40 -19 -42 25 -19 21 11 43 20 49 20 5 0 -4 -28 -21 -62 -35 -74 -34 -72 -47 -63 -8 4 -6 15 4 35 21 40 20 41 -26 18 -22 -10 -44 -17 -47 -14 -6 7 48 126 58 126 4 0 9 -3 13 -6z m1045 -76 c30 -67 36 -91 21 -86 -16 5 -58 84 -58 111 -1 30 16 18 37 -25z m-889 -4 c29 -21 13 -42 -18 -23 -17 11 -23 11 -35 -1 -27 -28 -24 -80 4 -80 11 0 20 -7 20 -15 0 -20 -29 -19 -52 2 -25 23 -24 81 4 110 25 27 45 29 77 7z m814 -43 c16 -43 21 -48 44 -43 18 3 24 1 21 -8 -4 -14 -94 -51 -102 -42 -11 10 -6 20 14 25 20 5 20 5 0 49 -23 51 -25 68 -7 68 7 0 21 -22 30 -49z m-71 -33 c-2 -40 -8 -77 -12 -81 -4 -4 -26 18 -50 49 -23 31 -45 52 -49 46 -3 -5 -17 -12 -31 -13 -27 -4 -35 -26 -25 -66 5 -21 11 -24 35 -21 31 5 50 -16 24 -26 -53 -20 -94 11 -94 71 0 41 33 77 63 69 11 -3 26 -1 33 5 9 7 19 6 34 -3 19 -12 23 -10 41 15 12 15 24 27 28 27 5 0 6 -33 3 -72z m-622 24 c0 -9 -9 -11 -35 -6 -29 5 -35 3 -35 -11 0 -9 9 -19 20 -22 27 -7 19 -29 -8 -25 -31 5 -27 -16 5 -29 41 -15 15 -32 -28 -18 -19 7 -35 13 -37 14 -2 2 6 32 18 67 l21 65 39 -11 c22 -5 40 -16 40 -24z m160 -29 c0 -12 -7 -14 -29 -10 -23 5 -30 2 -34 -13 -4 -16 0 -20 20 -20 15 0 23 -5 20 -12 -2 -7 -14 -13 -26 -12 -32 1 -25 -23 9 -31 17 -4 30 -13 30 -22 0 -10 -6 -13 -16 -9 -9 3 -29 6 -45 6 -32 0 -35 13 -23 101 l6 44 44 -4 c31 -2 44 -7 44 -18z m224 -5 c17 -24 23 -128 7 -128 -10 0 -21 48 -21 91 0 22 -5 29 -20 29 -20 0 -25 -21 -20 -92 1 -19 -3 -28 -13 -28 -21 0 -29 97 -10 128 18 29 57 29 77 0z m-132 -5 c23 -20 24 -80 1 -105 -9 -10 -30 -18 -50 -18 l-33 0 0 63 c0 35 3 67 7 70 12 13 56 7 75 -10z"/>
 <path d="M310 2610 c0 -13 7 -20 20 -20 13 0 20 7 20 20 0 13 -7 20 -20 20 -13 0 -20 -7 -20 -20z"/>
 <path d="M550 2605 c0 -8 9 -15 20 -15 11 0 20 7 20 15 0 8 -9 15 -20 15 -11 0 -20 -7 -20 -15z"/>
 <path d="M1113 2683 c-15 -6 -17 -61 -3 -83 12 -18 43 -3 48 24 9 46 -11 73 -45 59z"/>
 <path d="M1629 2666 c-16 -33 2 -79 29 -74 13 3 17 13 17 48 0 54 -27 69 -46 26z"/>
 <path d="M2130 2641 c0 -44 3 -51 20 -51 39 0 41 93 3 98 -21 3 -23 0 -23 -47z"/>
 <path d="M1201 2344 c-12 -15 -21 -35 -21 -46 0 -27 45 -68 75 -68 29 0 75 40 75 65 0 20 -19 57 -34 67 -26 18 -75 8 -95 -18z"/>
 <path d="M1320 2002 c0 -13 -8 -17 -32 -17 -24 0 -36 -6 -43 -22 -12 -29 -46 -37 -63 -15 -12 16 -14 16 -27 -2 -21 -29 -8 -39 42 -31 29 4 49 2 59 -5 7 -7 23 -10 34 -7 12 3 20 0 20 -8 0 -9 -11 -12 -37 -8 -21 2 -67 0 -103 -5 -36 -5 -66 -9 -68 -7 -1 1 -9 28 -18 61 -16 62 -20 71 -30 61 -3 -3 1 -35 9 -70 l15 -65 -27 -5 c-29 -6 -36 2 -51 53 -13 45 -25 63 -38 59 -6 -3 -1 -27 14 -63 18 -45 21 -62 13 -73 -7 -7 -14 -11 -16 -9 -3 3 -27 -9 -54 -26 -28 -17 -51 -29 -52 -27 -36 53 -82 107 -89 103 -5 -3 -5 -11 0 -17 4 -7 23 -31 41 -55 27 -35 31 -45 21 -57 -20 -24 -3 -18 68 25 88 54 202 89 310 96 l87 5 -33 -29 c-17 -16 -29 -32 -25 -35 4 -4 21 7 39 24 30 29 37 31 78 27 25 -3 46 -2 46 3 0 5 -5 9 -12 9 -7 0 3 13 22 28 38 32 36 62 -3 62 -29 0 -43 -14 -52 -53 -4 -15 -13 -27 -21 -27 -11 0 -13 14 -8 70 5 50 4 70 -5 70 -6 0 -11 -8 -11 -18z m-5 -51 c0 -8 -8 -19 -17 -25 -22 -13 -44 5 -34 29 7 20 51 16 51 -4z m119 -10 c5 -8 -15 -30 -41 -45 -9 -5 -11 -2 -8 8 3 9 7 23 10 31 5 16 30 20 39 6z"/>
 <path d="M1480 1977 c0 -7 -7 -37 -16 -66 -11 -40 -19 -51 -30 -47 -10 4 -14 1 -12 -6 3 -7 23 -18 46 -25 71 -20 165 -75 218 -128 28 -27 59 -57 69 -65 17 -13 18 -13 13 1 -4 11 10 32 42 64 27 27 47 51 45 55 -2 3 10 4 27 2 21 -3 29 -1 24 7 -13 20 -50 11 -83 -21 -32 -31 -34 -31 -51 -14 -12 14 -14 20 -4 23 23 9 12 24 -15 21 -16 -2 -27 -8 -26 -15 1 -6 -4 -17 -12 -23 -12 -10 -18 -10 -30 0 -8 7 -15 9 -15 4 0 -5 -5 -1 -11 9 -9 15 -4 29 25 71 38 55 42 66 27 66 -6 0 -26 -25 -46 -55 -32 -47 -39 -53 -56 -44 -15 8 -17 14 -9 29 13 24 13 67 -1 75 -19 12 -55 -4 -67 -30 -10 -21 -17 -25 -35 -19 -12 3 -23 7 -24 8 -2 1 6 32 16 69 16 56 17 67 5 67 -8 0 -14 -6 -14 -13z m110 -115 c0 -27 -23 -53 -38 -43 -10 6 -11 13 -1 34 14 31 39 36 39 9z m179 -146 c18 -22 -11 -41 -40 -25 -22 11 -22 12 -4 25 24 17 30 17 44 0z"/>
 <path d="M897 1873 c-11 -11 -8 -43 4 -43 15 0 69 33 69 42 0 11 -12 10 -30 -2 -9 -5 -19 -5 -26 0 -6 6 -14 7 -17 3z"/>
 <path d="M680 1783 c1 -5 19 -20 41 -36 l40 -27 -27 -35 c-29 -39 -45 -39 -24 -1 18 35 6 60 -25 52 -18 -5 -25 -2 -25 9 0 8 -4 15 -10 15 -5 0 -10 -10 -10 -22 0 -13 -3 -33 -6 -45 -5 -17 -2 -23 10 -23 9 0 16 8 16 20 0 11 7 23 15 27 21 7 32 -4 17 -19 -16 -16 -15 -53 2 -67 11 -10 20 -3 47 33 17 25 36 43 40 40 5 -2 -10 -28 -31 -57 -39 -51 -47 -67 -32 -67 9 0 102 126 102 139 0 6 -6 8 -13 5 -7 -2 -34 11 -60 31 -44 34 -67 43 -67 28z"/>
 <path d="M1180 1671 c-71 -22 -114 -58 -150 -129 -18 -34 -20 -45 -10 -57 10 -12 17 -12 51 5 38 20 139 28 139 12 0 -4 -16 -24 -36 -43 -76 -71 -96 -177 -49 -260 93 -167 99 -181 98 -254 0 -38 -2 -81 -4 -94 -12 -74 68 18 129 149 48 105 64 160 70 241 4 67 1 84 -20 131 -14 30 -39 70 -56 90 l-32 35 36 6 c24 4 56 -1 92 -13 66 -24 79 -16 61 34 -31 85 -141 156 -239 155 -30 0 -66 -4 -80 -8z m198 -58 c25 -16 54 -43 65 -60 l18 -32 -33 10 c-42 12 -100 12 -131 0 -17 -7 -43 -5 -83 6 -44 11 -70 12 -106 5 l-47 -9 20 28 c64 90 198 113 297 52z m-62 -178 c77 -80 90 -175 44 -312 -24 -68 -82 -193 -91 -193 -4 0 -9 22 -11 48 -5 48 -27 102 -93 222 -30 54 -35 72 -31 108 3 23 13 57 22 75 20 38 82 97 103 97 8 0 34 -20 57 -45z"/>
 <path d="M1667 1486 c-3 -7 -23 -18 -44 -23 -27 -6 -42 -17 -51 -37 -17 -34 -9 -45 17 -22 10 9 35 21 54 27 26 7 38 17 46 39 8 24 7 30 -3 30 -8 0 -16 -6 -19 -14z"/>
 <path d="M770 1437 c0 -2 19 -25 43 -50 40 -43 87 -63 87 -37 0 6 -7 10 -15 10 -8 0 -24 18 -35 40 -17 33 -26 40 -50 40 -17 0 -30 -1 -30 -3z"/>
 <path d="M1730 1405 c-14 -8 -37 -14 -51 -15 -26 0 -59 -27 -59 -48 0 -17 15 -15 30 3 7 8 27 15 46 15 34 0 64 21 64 46 0 17 1 17 -30 -1z"/>
 <path d="M733 1353 c-18 -7 -16 -23 2 -23 8 0 30 -13 48 -30 33 -29 87 -41 87 -20 0 6 -6 10 -13 10 -7 0 -28 16 -47 35 -32 33 -50 40 -77 28z"/>
 <path d="M1735 1313 c-36 -3 -67 -10 -77 -20 -21 -19 -14 -37 11 -24 9 5 36 7 59 4 32 -4 47 -1 62 12 20 18 27 37 13 33 -5 -1 -35 -3 -68 -5z"/>
 <path d="M697 1243 c-12 -12 -7 -23 10 -23 9 0 34 -12 55 -26 27 -19 44 -25 63 -20 31 8 33 26 2 26 -13 0 -34 11 -47 25 -22 24 -68 34 -83 18z"/>
 <path d="M1678 1210 c-28 -17 -21 -32 11 -25 17 3 32 2 36 -4 10 -16 81 -13 95 4 13 16 13 16 -27 20 -16 2 -44 6 -63 9 -19 4 -43 2 -52 -4z"/>
 <path d="M713 1140 c-30 -12 -29 -30 0 -30 13 0 32 -7 43 -15 25 -19 55 -19 80 0 18 14 18 14 -9 15 -16 0 -40 9 -54 20 -29 22 -29 22 -60 10z"/>
 <path d="M1677 1123 c-13 -13 -7 -23 14 -23 12 0 37 -10 56 -21 28 -18 39 -20 59 -10 32 14 31 31 -3 31 -16 0 -37 7 -47 15 -20 15 -67 20 -79 8z"/>
 <path d="M705 1030 c-10 -11 -16 -20 -14 -20 112 -8 135 -7 152 7 9 9 17 19 17 22 0 3 -31 7 -69 8 -57 2 -71 -1 -86 -17z"/>
 <path d="M1665 1040 c-3 -5 1 -10 9 -10 8 0 29 -14 47 -31 21 -21 39 -29 57 -27 30 4 43 28 15 28 -11 0 -30 11 -43 25 -24 25 -73 34 -85 15z"/>
 <path d="M854 959 c-4 -7 -22 -9 -47 -6 -33 5 -44 1 -64 -19 -30 -30 -26 -38 12 -24 15 6 36 8 46 5 26 -9 57 3 69 25 11 21 -4 38 -16 19z"/>
 <path d="M1643 963 c-17 -6 -16 -23 1 -23 7 0 26 -16 40 -35 20 -26 35 -35 57 -35 35 0 38 17 6 29 -13 5 -31 20 -40 34 -16 25 -42 37 -64 30z"/>
 <path d="M890 875 c-7 -9 -28 -15 -51 -15 -30 0 -42 -5 -55 -25 -22 -34 -16 -37 31 -20 22 8 47 14 56 15 23 0 55 38 42 51 -7 7 -14 5 -23 -6z"/>
 <path d="M1590 880 c0 -5 4 -10 10 -10 5 0 21 -18 35 -40 14 -23 36 -42 50 -46 35 -9 44 4 19 24 -11 9 -31 32 -43 50 -21 31 -71 46 -71 22z"/>
 <path d="M1530 834 c0 -4 7 -12 16 -19 10 -6 22 -27 28 -46 7 -21 22 -39 39 -47 37 -18 46 -8 19 21 -12 13 -22 30 -22 38 0 22 -38 59 -60 59 -11 0 -20 -3 -20 -6z"/>
 <path d="M950 821 c0 -5 -19 -16 -42 -23 -27 -9 -49 -25 -58 -41 -19 -34 -7 -44 21 -18 13 12 33 21 45 21 13 0 30 10 38 22 18 26 21 48 6 48 -5 0 -10 -4 -10 -9z"/>
 <path d="M1010 765 c0 -8 -17 -23 -37 -32 -23 -11 -41 -29 -47 -45 -13 -38 -3 -44 27 -16 13 13 36 31 51 41 26 18 37 67 16 67 -5 0 -10 -7 -10 -15z"/>
 <path d="M1470 775 c0 -3 4 -13 9 -23 6 -9 13 -34 16 -54 3 -22 14 -42 25 -48 32 -17 42 -12 26 12 -9 12 -16 34 -16 48 0 31 -26 70 -46 70 -8 0 -14 -2 -14 -5z"/>
 <path d="M1406 683 c4 -66 15 -93 40 -93 10 0 11 6 4 24 -5 13 -6 33 -3 45 8 30 -3 64 -25 78 -18 11 -19 8 -16 -54z"/>
 <path d="M1085 720 c-3 -11 -19 -29 -36 -40 -22 -17 -29 -29 -29 -56 0 -19 5 -34 10 -34 6 0 10 4 10 10 0 5 16 27 35 49 21 23 35 49 35 65 0 31 -16 35 -25 6z"/>
 <path d="M1157 701 c2 -10 -2 -24 -9 -32 -31 -30 -47 -65 -41 -87 7 -29 33 -29 33 1 0 13 9 32 19 41 24 22 30 46 20 74 -10 27 -29 30 -22 3z"/>
 <path d="M1250 686 c0 -15 -10 -40 -21 -55 -17 -23 -19 -35 -13 -55 12 -36 28 -37 32 -1 2 16 10 38 18 49 18 27 18 60 -1 76 -13 11 -15 8 -15 -14z"/>
 <path d="M1334 688 c3 -13 0 -37 -6 -55 -9 -24 -9 -38 0 -58 15 -33 31 -32 30 3 0 15 3 44 7 64 5 26 3 43 -5 53 -19 22 -33 18 -26 -7z"/>
 <path d="M771 2236 c-24 -29 24 -95 50 -69 7 7 4 23 -7 47 -19 39 -26 43 -43 22z"/>
 <path d="M1697 2216 c-4 -10 -5 -21 -2 -24 9 -9 17 6 13 25 -3 17 -4 17 -11 -1z"/>
 <path d="M637 2105 c3 -8 9 -12 14 -9 12 7 11 11 -5 17 -10 4 -13 1 -9 -8z"/>
 <path d="M1905 2096 c-19 -29 -14 -53 11 -63 22 -8 46 24 42 57 -4 34 -33 37 -53 6z"/>
 <path d="M2284 1599 c-3 -6 -2 -15 2 -19 12 -12 38 5 30 19 -9 14 -23 14 -32 0z"/>
 <path d="M2290 1450 c0 -5 7 -7 15 -4 8 4 15 8 15 10 0 2 -7 4 -15 4 -8 0 -15 -4 -15 -10z"/>
 <path d="M2300 976 c0 -8 7 -16 15 -20 10 -4 15 1 15 14 0 11 -7 20 -15 20 -8 0 -15 -6 -15 -14z"/>
 <path d="M236 897 c-26 -19 -17 -51 16 -55 29 -3 61 30 51 54 -7 18 -44 18 -67 1z"/>
 <path d="M2203 833 c-22 -8 -14 -28 17 -46 47 -28 68 -5 30 33 -21 21 -26 22 -47 13z"/>
 <path d="M2066 592 c-3 -6 1 -13 10 -16 23 -9 28 -2 10 13 -8 7 -17 8 -20 3z"/>
 <path d="M1823 413 c-29 -11 -1 -86 31 -81 27 4 32 32 12 63 -17 25 -21 27 -43 18z"/>
 <path d="M1576 255 c4 -8 8 -15 10 -15 2 0 4 7 4 15 0 8 -4 15 -10 15 -5 0 -7 -7 -4 -15z"/>
 <path d="M1200 205 c0 -38 3 -45 20 -45 17 0 20 7 20 39 0 26 -5 41 -16 45 -24 9 -24 9 -24 -39z"/>
 </g>

</svg>